<svg xmlns="http://www.w3.org/2000/svg" width="900" height="900" viewBox="0 0 900 900">
<rect width="100%" height="100%" fill="#0e1526"/>
<polygon points="1070.0,-1415.0 1190.7,-1244.4 1230.3,-1183.8 1380.2,-953.1 1505.7,-773.5 1619.7,-473.5 1603.4,-470.5 1356.1,-453.7 1246.6,-515.1 1175.3,-331.7 1153.3,-262.8 1097.6,-184.9 1051.6,-37.7 1075.1,138.2 1192.2,111.1 1223.1,202.0 996.4,278.2 685.8,-508.0 899.9,-662.6 745.4,-1094.9 729.3,-1153.0 839.8,-1240.4" fill="#272620"/>
<polygon points="-1531.6,-224.0 -1652.4,-130.8 -1606.2,-104.3 -1502.3,-42.4 -1441.0,7.9 -1426.2,19.2 -1295.5,234.3 -1257.5,289.4 -1217.6,335.0 -1209.2,371.4 -1173.1,404.7 -1054.9,444.0 -1034.0,464.3 -978.8,595.3 -962.1,633.8 -920.6,628.8 -879.5,638.1 -852.1,568.2 -768.4,607.8 -674.6,656.4 -642.8,668.2 -597.4,681.2 -567.4,689.7 -580.2,741.8 -552.4,748.6 -344.7,799.7 -316.9,806.4 -285.3,811.9 -263.5,817.2 -258.8,798.7 -259.3,798.4 -246.6,749.8 60.9,822.4 231.2,855.3 281.1,861.5 420.3,873.8 604.5,877.0 667.7,874.3 794.3,865.0 911.1,848.7 2016.6,484.3 2306.0,403.2 2385.3,405.2 2449.6,385.9 2606.7,389.6 2714.2,400.2 2830.4,422.4 3023.7,493.8 3090.3,528.4 3288.6,646.9 3470.8,778.6 3886.1,1074.4 3921.9,1029.1 3652.2,827.5 3470.1,681.4 3403.3,637.1 3180.8,489.1 3108.2,450.3 2951.3,368.3 2839.2,319.3 2737.3,277.9 2656.2,218.8 2593.5,150.7 2543.9,52.0 2487.0,-238.3 2403.0,-272.6 2153.3,-541.4 1754.9,-414.9 1717.3,-473.5 1611.5,-725.2 1623.4,-734.0 1428.3,-981.4 1380.2,-953.1 1505.7,-773.5 1619.7,-473.5 1682.3,-349.5 1836.4,-174.2 2058.9,50.8 2209.9,142.2 2361.5,195.0 2570.5,282.9 2551.2,310.5 2309.7,324.0 2249.9,363.1 2131.0,391.1 2041.2,417.7 1984.9,434.2 1637.5,555.4 1206.0,705.5 1163.2,720.0 1102.5,725.3 1040.3,738.0 938.7,741.3 861.1,729.0 759.0,693.5 640.3,641.1 503.8,592.0 376.9,553.9 105.4,460.5 -42.1,418.2 -77.2,387.6 -209.0,238.1 -261.0,234.1 -347.3,234.8 -379.7,252.9 -406.4,212.3 -445.6,208.8 -457.7,207.8 -472.8,207.0 -567.5,285.7 -678.6,377.9 -682.8,454.3 -673.9,521.1 -721.1,526.4 -773.2,501.6 -781.6,497.3 -788.4,494.3 -815.0,481.6 -967.5,378.4 -1148.0,205.3 -1295.1,49.0 -1372.4,-35.7" fill="#232320"/>
<polygon points="-219.2,-23.4 -255.8,13.2 -263.2,37.5 -250.7,47.5 -244.0,52.8 -219.6,72.3 -218.2,73.3 -167.6,136.4 -125.4,187.8 -123.1,189.8 -88.5,220.3 -34.9,227.8 -17.8,230.1 10.3,233.8 20.8,160.5 43.0,163.5 109.8,172.0 189.7,183.0 319.1,49.2 312.6,41.2 192.5,-75.0 122.6,-61.0 85.2,-26.6 8.5,-30.9 1.9,-37.4 -63.0,-99.8 -111.0,-47.7 -131.9,-25.9 -139.4,-17.6 -148.0,-8.9 -157.2,0.4 -164.4,8.2 -165.1,8.4 -195.3,-9.1" fill="#282722"/>
<polygon points="641.0,369.6 586.9,552.7 868.4,647.4 910.8,651.1 1005.9,647.4 1019.8,629.6 1001.1,539.9 954.7,344.3 938.2,334.8 670.4,373.6" fill="#2a241d"/>
<polygon points="192.9,225.3 208.0,239.9 227.2,260.6 396.8,284.2 477.2,295.0 597.1,310.7 618.4,313.7 640.5,317.3 653.0,318.0 659.7,225.1 653.5,216.6 661.8,208.5 663.0,191.5 638.0,120.6 650.2,90.3 703.9,69.8 747.4,6.4 690.6,-55.7 635.8,-115.6 444.0,-19.6 398.3,13.4" fill="#2a241d"/>
<polygon points="578.3,1052.4 627.1,1175.9 638.2,1183.6 750.9,1144.8 724.0,1062.9 713.6,1060.6 695.2,1008.5 617.0,1035.1" fill="#231f1a"/>
<polygon points="218.7,319.3 175.8,444.2 -31.7,386.6 -60.7,364.6 -48.6,282.7" fill="#2a241d"/>
<polygon points="245.4,999.3 268.6,1005.0 291.5,1010.3 307.7,1053.6 295.7,1058.1 299.7,1069.7 311.9,1065.2 319.2,1085.4 292.7,1095.2 299.6,1113.2 325.9,1103.2 330.0,1113.7 259.0,1140.0 265.5,1122.5 272.3,1101.5 273.0,1094.5 273.7,1086.7 273.2,1071.2 270.7,1051.9 267.9,1039.9 266.0,1033.6 262.5,1025.3 256.5,1015.6" fill="#252f1f"/>
<polygon points="204.7,989.8 212.2,991.5 225.2,994.5 234.2,1000.3 238.4,1003.5 244.0,1009.0 250.7,1017.8 254.9,1024.1 259.5,1034.8 262.5,1045.6 264.8,1058.1 266.7,1070.2 267.1,1090.4 266.9,1096.5 266.2,1102.0 263.2,1111.7 259.8,1121.5 253.7,1134.8 248.4,1139.0 228.6,1157.6 9.4,1243.5 4.5,1229.7 130.3,1182.4 128.0,1176.1 153.2,1166.6 171.3,1160.8 187.6,1155.8 201.9,1148.6 215.2,1139.0 250.2,1127.5 254.4,1117.5 259.1,1103.5 261.6,1086.9 261.3,1069.7 260.6,1062.1 259.0,1053.6 256.5,1046.6 252.8,1038.4 246.8,1027.3 241.4,1019.3 236.5,1013.3 229.1,1005.8" fill="#252f1f"/>
<polygon points="315.2,1043.6 357.7,1026.6 402.9,1037.3 415.2,1069.9" fill="#252f1f"/>
<polygon points="572.3,-182.7 573.5,-181.4 569.0,-175.2 560.7,-168.9 446.8,-109.5 430.1,-108.0 416.3,-118.1 412.4,-133.6 412.2,-143.9 428.6,-123.1 439.8,-127.8 441.7,-125.6" fill="#232d1e"/>
<polygon points="582.5,-171.7 585.8,-168.2 586.9,-159.4 585.5,-147.4 580.4,-138.9 447.0,-71.2 438.4,-88.3 450.2,-100.3 456.0,-91.3 574.6,-151.6 575.8,-166.2" fill="#232d1e"/>
<polygon points="681.8,900.8 667.7,874.3 604.5,877.0 522.1,876.5 420.3,873.8 281.1,861.5 231.2,855.3 216.8,926.6 366.0,961.5 513.1,1002.5 525.7,996.8 556.7,982.5 736.6,914.9 730.5,887.8" fill="#26261f"/>
<polygon points="268.5,-151.1 364.4,-57.2 301.3,7.2 205.4,-86.8" fill="#2b3a2a"/>
<polygon points="-160.7,262.1 -55.3,279.2 -67.0,361.6" fill="#26261f"/>
<polygon points="361.3,-326.5 312.7,-287.4 315.9,-268.3 338.1,-243.3 335.2,-239.0 371.3,-194.0 372.1,-195.0 380.9,-203.2 439.8,-127.8 441.7,-125.6 572.3,-182.7 567.7,-187.7 563.4,-192.5 512.9,-170.2 509.8,-169.7 505.4,-170.7 501.8,-173.2 492.4,-184.2 486.4,-190.9 489.4,-193.7 431.2,-257.6 406.6,-235.5 348.6,-299.9 367.9,-317.7" fill="#26261f"/>
<polygon points="573.5,-181.4 569.0,-175.2 560.7,-168.9 446.8,-109.5 430.1,-108.0 416.3,-118.1 399.4,-127.8 358.1,-85.8 396.2,-47.2 450.2,-100.3 456.0,-91.3 574.6,-151.6 575.8,-166.2 582.5,-171.7 578.3,-176.2" fill="#26261f"/>
<polygon points="881.4,171.2 905.9,210.3 903.6,217.1 907.1,223.8 909.9,229.1 917.3,228.6 927.3,249.9 934.2,264.4 923.4,284.7 676.9,320.3 653.0,318.0 659.7,225.1 784.8,178.5 808.0,215.3 875.6,174.7" fill="#26261f"/>
<polygon points="221.4,-177.9 251.1,-149.9 204.8,-100.8 175.1,-128.8" fill="#2b3a2a"/>
<polygon points="153.4,-94.0 87.1,-33.2 55.8,-67.2 122.1,-128.1" fill="#2b3a2a"/>
<polygon points="154.2,215.3 108.9,238.1 116.8,180.0 182.5,186.3 166.2,203.8" fill="#26261f"/>
<polygon points="-706.0,812.9 -703.7,805.4 -696.2,780.1 -688.1,753.3 -683.2,737.0 -677.2,717.5 -668.2,721.3 -650.1,724.8 -580.2,741.8 -552.4,748.6 -546.4,724.5 -544.9,718.0 -542.9,710.0 -542.4,708.0 -524.0,712.5 -480.9,723.0 -467.4,726.3 -468.1,729.0 -456.5,732.0 -439.4,736.0 -421.7,740.5 -410.4,743.3 -409.7,740.5 -406.7,741.3 -398.7,743.0 -339.6,757.6 -334.7,758.8 -336.6,766.3 -338.2,773.1 -339.3,777.1 -339.8,779.4 -344.7,799.7 -316.9,806.4 -273.9,817.2 -279.1,839.5 -284.4,861.0 -272.6,863.5 -261.4,866.0 -260.3,864.8 -257.4,863.3 -253.7,862.5 -250.3,863.0 -235.2,867.0 -227.0,869.0 -193.9,877.3 -176.2,881.6 -142.1,890.1 -120.3,895.6 -86.7,903.8 -65.6,909.1 -32.6,917.1 -11.3,922.6 23.1,931.2 42.6,935.9 76.0,944.2 106.3,951.7 108.0,952.2 110.1,953.4 111.9,955.2 113.1,957.2 113.6,959.7 113.3,963.5 111.9,969.7 110.3,977.2 105.2,995.8 103.6,1001.5 102.6,1004.5 100.3,1007.3 97.5,1008.8 95.7,1009.0 88.0,1007.0 52.7,998.3 20.7,990.3 -2.5,984.5 -35.2,976.5 -54.6,971.5 -88.1,963.2 -112.2,957.2 -144.4,949.2 -167.2,943.7 -197.4,936.2 -218.5,930.9 -253.5,922.1 -267.9,918.6 -284.6,913.4 -304.8,909.6 -321.1,905.9 -348.4,899.3 -381.8,891.1 -462.8,871.0 -481.6,866.8 -486.0,866.8 -501.1,867.3 -519.2,865.0 -613.8,842.2 -629.2,838.5 -632.6,837.7 -641.5,835.2 -647.9,832.7 -651.9,830.5 -654.7,827.7 -654.7,825.0 -666.8,822.2 -696.5,815.2" fill="#4c4a41"/>
<polygon points="34.9,-114.8 31.0,-118.3 26.8,-113.3 30.9,-109.8" fill="#1b2233" stroke="#2c3550" stroke-width="1"/>
<polygon points="-121.2,-90.8 -120.3,-89.8 -114.5,-84.0 -111.7,-86.8 -105.2,-80.5 -91.5,-94.8 -98.3,-101.3 -88.8,-111.3 -98.0,-119.6 -113.8,-102.3 -111.8,-100.3" fill="#1b2233" stroke="#2c3550" stroke-width="1"/>
<polygon points="127.5,-10.6 200.4,-0.6 204.8,-34.7 131.7,-44.2" fill="#1b2233" stroke="#2c3550" stroke-width="1"/>
<polygon points="-94.3,-18.1 -107.3,86.8 -74.2,90.8 -72.8,82.6 -61.1,-14.1" fill="#1b2233" stroke="#2c3550" stroke-width="1"/>
<polygon points="56.2,513.6 59.5,500.1 -3.6,484.1 -6.9,497.8" fill="#1b2233" stroke="#2c3550" stroke-width="1"/>
<polygon points="46.0,-122.6 50.0,-119.1 54.2,-123.8 50.2,-127.3" fill="#1b2233" stroke="#2c3550" stroke-width="1"/>
<polygon points="-104.5,467.5 -97.8,469.3 -95.1,458.5 -101.5,457.3" fill="#1b2233" stroke="#2c3550" stroke-width="1"/>
<polygon points="257.4,40.7 196.4,32.5 195.5,39.7 110.3,29.7 109.6,38.5 20.3,27.7 15.9,66.5 105.4,76.8 106.4,70.0 190.4,79.8 191.5,72.0 252.8,79.6" fill="#1b2233" stroke="#2c3550" stroke-width="1"/>
<polygon points="-95.8,469.8 -65.4,478.1 -62.6,467.3 -93.0,459.3" fill="#1b2233" stroke="#2c3550" stroke-width="1"/>
<polygon points="-131.9,-25.9 -141.5,-34.9 -148.0,-41.4 -156.3,-32.7 -139.4,-17.6" fill="#1b2233" stroke="#2c3550" stroke-width="1"/>
<polygon points="-120.3,-56.7 -141.5,-34.9 -131.9,-25.9 -111.0,-47.7" fill="#1b2233" stroke="#2c3550" stroke-width="1"/>
<polygon points="33.1,236.6 99.9,245.4 109.8,172.0 43.0,163.5 38.1,200.0" fill="#1b2233" stroke="#2c3550" stroke-width="1"/>
<polygon points="-43.8,50.3 -48.2,86.1 -72.8,82.6 -74.2,90.8 -49.5,94.1 -54.4,130.9 -14.7,136.2 -4.1,55.5" fill="#1b2233" stroke="#2c3550" stroke-width="1"/>
<polygon points="9.9,-102.3 8.2,-100.3 16.6,-93.0 22.6,-100.0 18.4,-103.5 14.2,-98.5" fill="#1b2233" stroke="#2c3550" stroke-width="1"/>
<polygon points="203.4,427.7 226.3,434.2 239.5,390.1 216.6,383.1" fill="#1b2233" stroke="#2c3550" stroke-width="1"/>
<polygon points="-17.8,230.1 -13.1,193.5 7.0,196.3 9.2,179.0 -43.7,172.2 -41.0,152.2 -57.9,150.2 -64.9,202.8 -72.1,201.3 -73.2,210.1 -74.1,219.1 -34.2,224.3 -34.9,227.8" fill="#1b2233" stroke="#2c3550" stroke-width="1"/>
<polygon points="244.7,368.6 288.1,381.6 294.5,359.6 251.6,346.6" fill="#1b2233" stroke="#2c3550" stroke-width="1"/>
<polygon points="-103.9,786.1 -130.1,779.9 -131.7,786.9 -105.9,793.1" fill="#1b2233" stroke="#2c3550" stroke-width="1"/>
<polygon points="-92.5,787.6 -97.4,806.9 -105.5,804.9 -107.3,811.7 -21.5,832.5 -20.8,830.0 5.6,836.7 5.0,839.2 196.4,886.8 202.9,860.3" fill="#1b2233" stroke="#2c3550" stroke-width="1"/>
<polygon points="-107.3,811.7 -105.5,804.9 -137.9,796.9 -139.4,803.7" fill="#1b2233" stroke="#2c3550" stroke-width="1"/>
<polygon points="-32.6,877.6 -26.1,851.0 -147.0,821.2 -153.5,847.7" fill="#1b2233" stroke="#2c3550" stroke-width="1"/>
<polygon points="-6.2,884.1 79.4,905.1 85.9,878.6 0.3,857.5" fill="#1b2233" stroke="#2c3550" stroke-width="1"/>
<polygon points="106.6,883.8 100.1,910.1 185.5,931.2 192.2,904.9" fill="#1b2233" stroke="#2c3550" stroke-width="1"/>
<polygon points="-97.8,903.1 -98.7,906.9 -90.8,908.9 -90.2,906.9 -89.9,905.1" fill="#1b2233" stroke="#2c3550" stroke-width="1"/>
<polygon points="-41.2,916.9 -42.1,920.4 -34.3,922.4 -33.8,920.4 -33.3,918.6" fill="#1b2233" stroke="#2c3550" stroke-width="1"/>
<polygon points="10.5,929.9 9.6,933.7 17.5,935.7 17.9,933.7 18.4,931.9" fill="#1b2233" stroke="#2c3550" stroke-width="1"/>
<polygon points="66.0,943.9 65.1,947.7 72.9,949.7 73.4,947.7 73.9,945.9" fill="#1b2233" stroke="#2c3550" stroke-width="1"/>
<polygon points="170.7,969.7 169.9,973.5 177.8,975.2 178.3,973.5 178.7,971.7" fill="#1b2233" stroke="#2c3550" stroke-width="1"/>
<polygon points="-85.5,956.4 -85.8,958.2 -86.4,960.2 -78.5,962.0 -77.6,958.2" fill="#1b2233" stroke="#2c3550" stroke-width="1"/>
<polygon points="-32.4,969.5 -32.9,971.5 -33.3,973.2 -25.4,975.2 -24.5,971.5" fill="#1b2233" stroke="#2c3550" stroke-width="1"/>
<polygon points="22.4,983.2 22.1,985.0 21.5,987.0 29.5,988.8 30.3,985.3" fill="#1b2233" stroke="#2c3550" stroke-width="1"/>
<polygon points="156.2,1016.3 155.6,1018.3 155.3,1020.1 163.2,1021.8 164.1,1018.3" fill="#1b2233" stroke="#2c3550" stroke-width="1"/>
<polygon points="232.4,221.1 228.2,251.4 310.5,262.9 314.9,232.1 297.3,229.8 296.1,238.6 290.4,237.9 291.7,228.8 256.3,223.8 255.3,232.1 249.7,231.3 250.7,223.6" fill="#1b2233" stroke="#2c3550" stroke-width="1"/>
<polygon points="985.5,129.7 972.3,130.9 974.2,152.9 987.4,151.7" fill="#1b2233" stroke="#2c3550" stroke-width="1"/>
<polygon points="1000.2,961.5 1027.1,960.5 1032.6,960.2 1032.2,953.4 1032.2,936.9 1016.9,937.9 999.9,938.4" fill="#1b2233" stroke="#2c3550" stroke-width="1"/>
<polygon points="866.7,161.5 872.7,157.5 870.7,154.2 862.5,141.9 856.3,146.2" fill="#1b2233" stroke="#2c3550" stroke-width="1"/>
<polygon points="924.7,929.9 912.5,933.9 941.7,1018.8 953.5,1015.1" fill="#1b2233" stroke="#2c3550" stroke-width="1"/>
<polygon points="769.7,-120.6 796.7,-125.1 796.7,-138.6 808.7,-139.6 809.6,-156.4 794.8,-156.1 795.0,-139.6 764.9,-136.3 767.4,-120.3" fill="#1b2233" stroke="#2c3550" stroke-width="1"/>
<polygon points="673.2,118.1 712.7,159.7 757.0,117.6 766.5,108.6 781.4,94.8 799.9,77.6 780.9,57.0 772.7,48.0 719.1,99.1 706.9,86.6" fill="#1b2233" stroke="#2c3550" stroke-width="1"/>
<polygon points="834.7,13.2 845.8,31.7 856.3,25.7 889.2,6.9 878.5,-12.1 846.3,6.4" fill="#1b2233" stroke="#2c3550" stroke-width="1"/>
<polygon points="791.8,157.2 799.2,168.2 803.8,164.7 809.9,160.0 802.4,149.2" fill="#1b2233" stroke="#2c3550" stroke-width="1"/>
<polygon points="1022.4,414.4 1054.2,421.7 1059.3,399.2 1039.8,395.6 1026.4,393.1" fill="#1b2233" stroke="#2c3550" stroke-width="1"/>
<polygon points="757.4,-67.2 759.1,-67.7 769.8,-69.7 764.9,-84.8 758.6,-103.5 746.8,-99.8 748.9,-92.8 754.6,-76.0" fill="#1b2233" stroke="#2c3550" stroke-width="1"/>
<polygon points="760.5,727.5 738.0,721.5 736.3,728.8 758.2,734.8" fill="#1b2233" stroke="#2c3550" stroke-width="1"/>
<polygon points="1032.2,936.9 1022.4,888.1 1008.5,892.1 1016.9,937.9" fill="#1b2233" stroke="#2c3550" stroke-width="1"/>
<polygon points="954.2,1027.8 919.4,1038.9 923.4,1050.6 957.7,1039.4" fill="#1b2233" stroke="#2c3550" stroke-width="1"/>
<polygon points="987.9,157.2 987.4,151.7 974.2,152.9 974.4,158.5" fill="#1b2233" stroke="#2c3550" stroke-width="1"/>
<polygon points="974.9,1009.5 999.5,1001.8 994.4,987.8 973.9,991.8" fill="#1b2233" stroke="#2c3550" stroke-width="1"/>
<polygon points="1019.9,106.6 1024.0,114.1 1030.8,110.1 1027.5,103.4" fill="#1b2233" stroke="#2c3550" stroke-width="1"/>
<polygon points="769.8,-69.7 779.7,-72.0 777.9,-79.5 771.3,-78.2 768.8,-85.8 764.9,-84.8" fill="#1b2233" stroke="#2c3550" stroke-width="1"/>
<polygon points="790.1,211.6 786.0,198.0 759.0,206.3 757.5,202.3 737.3,208.8 740.9,221.8 761.9,215.6 763.0,219.8" fill="#1b2233" stroke="#2c3550" stroke-width="1"/>
<polygon points="812.6,-65.7 819.2,-54.9 829.4,-61.2 822.7,-72.2" fill="#1b2233" stroke="#2c3550" stroke-width="1"/>
<polygon points="856.3,146.2 838.6,158.2 852.3,178.0 869.8,165.7 868.6,164.0 866.7,161.5" fill="#1b2233" stroke="#2c3550" stroke-width="1"/>
<polygon points="810.3,-34.9 813.4,-36.9 820.6,-41.2 814.3,-52.2 819.2,-54.9 812.6,-65.7 802.4,-59.5 808.5,-48.7 803.8,-46.2" fill="#1b2233" stroke="#2c3550" stroke-width="1"/>
<polygon points="990.4,727.5 1039.1,724.5 1032.4,691.7 1029.1,689.2 1014.8,678.2 987.1,679.9" fill="#1b2233" stroke="#2c3550" stroke-width="1"/>
<polygon points="314.0,388.9 357.2,401.7 363.7,379.4 320.3,366.8" fill="#1b2233" stroke="#2c3550" stroke-width="1"/>
<polygon points="337.9,467.5 359.5,473.8 372.3,430.5 351.1,423.7" fill="#1b2233" stroke="#2c3550" stroke-width="1"/>
<polygon points="977.2,191.0 990.6,190.0 987.9,157.2 974.4,158.5" fill="#1b2233" stroke="#2c3550" stroke-width="1"/>
<polygon points="1029.2,186.5 1021.3,198.0 1023.1,208.8 1032.6,207.3" fill="#1b2233" stroke="#2c3550" stroke-width="1"/>
<polygon points="942.6,619.8 945.1,630.6 958.9,629.8 956.5,618.8" fill="#1b2233" stroke="#2c3550" stroke-width="1"/>
<polygon points="766.5,108.6 757.0,117.6 765.3,126.6 774.9,117.9" fill="#1b2233" stroke="#2c3550" stroke-width="1"/>
<polygon points="822.7,-72.2 829.4,-61.2 834.2,-64.2 827.3,-75.0" fill="#1b2233" stroke="#2c3550" stroke-width="1"/>
<polygon points="845.4,-55.7 820.6,-41.2 813.4,-36.9 827.7,-12.1 859.8,-30.6" fill="#1b2233" stroke="#2c3550" stroke-width="1"/>
<polygon points="1026.4,393.1 1039.8,395.6 1041.5,385.4 1054.0,384.4 1053.7,374.1 1049.5,366.6 1042.8,367.1 1042.6,363.8 1036.4,351.8 1028.4,353.8 1029.2,364.6 1030.3,375.1 1028.4,384.1" fill="#1b2233" stroke="#2c3550" stroke-width="1"/>
<polygon points="631.9,679.2 621.0,673.4 618.5,677.9 629.4,683.4" fill="#1b2233" stroke="#2c3550" stroke-width="1"/>
<polygon points="398.7,-134.8 323.3,-207.2 289.7,-172.4 295.7,-166.7 284.6,-154.9 347.4,-94.5 357.2,-85.8 383.4,-114.6 379.9,-117.8 388.7,-127.1 390.1,-125.8" fill="#1b2233" stroke="#2c3550" stroke-width="1"/>
<polygon points="1001.5,-114.6 1041.4,-95.8 1051.4,-116.8 1063.7,-143.6 1023.6,-162.4" fill="#1b2233" stroke="#2c3550" stroke-width="1"/>
<polygon points="858.4,933.2 846.6,937.2 881.3,1038.9 893.0,1034.8" fill="#1b2233" stroke="#2c3550" stroke-width="1"/>
<polygon points="976.0,1033.1 1040.3,1012.3 1037.9,1004.8 1033.3,990.5 1029.9,980.0 1001.1,986.0 994.4,987.8 999.5,1001.8 974.9,1009.5" fill="#1b2233" stroke="#2c3550" stroke-width="1"/>
<polygon points="1002.0,224.3 1011.1,234.6 1022.4,231.6 1023.4,235.6 1034.9,232.8 1031.5,221.3 1024.0,213.3 1016.2,205.0" fill="#1b2233" stroke="#2c3550" stroke-width="1"/>
<polygon points="781.4,94.8 789.9,104.6 808.9,87.3 799.9,77.6" fill="#1b2233" stroke="#2c3550" stroke-width="1"/>
<polygon points="818.2,138.2 825.4,148.2 846.8,133.2 838.4,122.9" fill="#1b2233" stroke="#2c3550" stroke-width="1"/>
<polygon points="949.6,650.9 964.2,650.1 960.0,629.6 958.9,629.8 945.1,630.6" fill="#1b2233" stroke="#2c3550" stroke-width="1"/>
<polygon points="742.4,-112.1 762.5,-119.6 759.0,-133.3 737.2,-127.1 741.7,-113.8" fill="#1b2233" stroke="#2c3550" stroke-width="1"/>
<polygon points="1022.4,888.1 1032.2,936.9 1032.2,953.4 1057.7,946.4 1055.1,933.2 1044.2,939.9 1033.5,885.1" fill="#1b2233" stroke="#2c3550" stroke-width="1"/>
<polygon points="479.5,777.9 362.5,773.6 361.8,782.9 479.2,787.1" fill="#1b2233" stroke="#2c3550" stroke-width="1"/>
<polygon points="972.1,962.7 973.9,991.8 994.4,987.8 1001.1,986.0 1000.2,961.5" fill="#1b2233" stroke="#2c3550" stroke-width="1"/>
<polygon points="917.8,1026.6 929.4,1022.8 897.6,932.4 886.4,936.4" fill="#1b2233" stroke="#2c3550" stroke-width="1"/>
<polygon points="1034.9,232.8 1023.4,235.6 1022.4,231.6 1011.1,234.6 1018.5,260.6 1021.0,268.7 1043.3,261.6" fill="#1b2233" stroke="#2c3550" stroke-width="1"/>
<polygon points="782.9,125.1 795.5,141.4 807.3,131.7 809.6,134.2 820.6,124.6 818.7,122.9 830.5,112.9 817.6,97.6 801.3,110.6" fill="#1b2233" stroke="#2c3550" stroke-width="1"/>
<polygon points="784.8,178.5 793.6,190.3 812.0,176.7 813.4,178.5 818.7,174.7 814.7,169.2 809.7,173.0 803.8,164.7 799.2,168.2" fill="#1b2233" stroke="#2c3550" stroke-width="1"/>
<polygon points="744.5,-105.3 746.8,-99.8 758.6,-103.5 757.0,-109.3" fill="#1b2233" stroke="#2c3550" stroke-width="1"/>
<polygon points="522.8,779.4 509.0,778.9 508.5,792.1 522.2,792.4" fill="#1b2233" stroke="#2c3550" stroke-width="1"/>
<polygon points="970.9,942.4 996.0,940.7 993.6,901.6 968.8,902.8" fill="#1b2233" stroke="#2c3550" stroke-width="1"/>
<polygon points="1028.2,445.5 1034.0,472.5 1035.2,474.8 1037.9,477.1 1040.0,478.1 1043.1,478.1 1045.2,476.8 1046.5,475.5 1047.9,473.3 1048.2,472.5 1048.2,470.8 1047.3,467.5 1056.7,465.5 1051.6,440.5 1041.2,442.7" fill="#1b2233" stroke="#2c3550" stroke-width="1"/>
<polygon points="976.0,1033.1 983.9,1057.4 1007.1,1049.9 1024.8,1044.1 1048.4,1036.3 1044.0,1023.3 1040.3,1012.3" fill="#1b2233" stroke="#2c3550" stroke-width="1"/>
<polygon points="279.4,770.6 279.2,781.4 359.5,782.9 360.0,772.1" fill="#1b2233" stroke="#2c3550" stroke-width="1"/>
<polygon points="736.3,1026.1 830.3,991.5 819.2,961.2 725.2,995.8" fill="#1b2233" stroke="#2c3550" stroke-width="1"/>
<polygon points="886.4,936.4 874.9,940.4 906.2,1030.3 917.8,1026.6" fill="#1b2233" stroke="#2c3550" stroke-width="1"/>
<polygon points="383.6,942.2 383.7,941.7 384.8,937.4 384.8,937.2 369.3,933.4 368.1,938.4" fill="#1b2233" stroke="#2c3550" stroke-width="1"/>
<polygon points="522.6,-65.5 524.3,-62.0 531.5,-65.5 530.8,-67.2 530.0,-69.0" fill="#1b2233" stroke="#2c3550" stroke-width="1"/>
<polygon points="493.2,-72.5 491.5,-75.7 484.3,-72.2 485.1,-70.5 486.0,-68.7" fill="#1b2233" stroke="#2c3550" stroke-width="1"/>
<polygon points="331.2,233.6 327.7,261.6 344.0,263.7 343.1,270.7 369.3,273.9 389.0,266.9 393.1,233.8 368.5,230.8 357.9,237.1" fill="#1b2233" stroke="#2c3550" stroke-width="1"/>
<polygon points="466.3,261.9 472.5,247.6 421.9,240.9 411.7,245.6 407.8,272.9 423.6,274.9 423.1,279.2 454.2,283.4 468.1,276.7" fill="#1b2233" stroke="#2c3550" stroke-width="1"/>
<polygon points="465.1,154.4 413.4,195.8 431.7,218.6 448.2,220.3 479.9,196.3 482.9,177.2 473.5,171.0" fill="#1b2233" stroke="#2c3550" stroke-width="1"/>
<line x1="966.5" y1="275.2" x2="975.1" y2="282.9" stroke="#31342e" stroke-width="11.3"/>
<line x1="975.1" y1="282.9" x2="988.6" y2="288.9" stroke="#31342e" stroke-width="11.3"/>
<line x1="944.5" y1="234.8" x2="943.3" y2="173.5" stroke="#31342e" stroke-width="11.3"/>
<line x1="943.3" y1="173.5" x2="941.7" y2="87.1" stroke="#31342e" stroke-width="11.3"/>
<line x1="941.7" y1="87.1" x2="941.7" y2="79.1" stroke="#31342e" stroke-width="11.3"/>
<line x1="941.7" y1="79.1" x2="941.9" y2="59.5" stroke="#31342e" stroke-width="11.3"/>
<line x1="941.9" y1="59.5" x2="941.9" y2="36.2" stroke="#31342e" stroke-width="11.3"/>
<line x1="941.9" y1="36.2" x2="941.5" y2="1.4" stroke="#31342e" stroke-width="11.3"/>
<line x1="941.5" y1="1.4" x2="942.1" y2="-32.9" stroke="#31342e" stroke-width="11.3"/>
<line x1="942.1" y1="-32.9" x2="947.5" y2="-74.2" stroke="#31342e" stroke-width="11.3"/>
<line x1="941.7" y1="87.1" x2="933.6" y2="103.1" stroke="#31342e" stroke-width="11.3"/>
<line x1="933.6" y1="103.1" x2="922.2" y2="113.1" stroke="#31342e" stroke-width="11.3"/>
<line x1="922.2" y1="113.1" x2="900.2" y2="121.6" stroke="#31342e" stroke-width="11.3"/>
<line x1="900.2" y1="121.6" x2="892.7" y2="121.9" stroke="#31342e" stroke-width="11.3"/>
<line x1="892.7" y1="121.9" x2="876.5" y2="122.9" stroke="#31342e" stroke-width="11.3"/>
<line x1="-70.4" y1="240.4" x2="25.8" y2="253.4" stroke="#31342e" stroke-width="18.0"/>
<line x1="25.8" y1="253.4" x2="54.4" y2="257.1" stroke="#31342e" stroke-width="18.0"/>
<line x1="54.4" y1="257.1" x2="93.2" y2="262.4" stroke="#31342e" stroke-width="18.0"/>
<line x1="93.2" y1="262.4" x2="120.3" y2="266.2" stroke="#31342e" stroke-width="18.0"/>
<line x1="120.3" y1="266.2" x2="135.1" y2="267.4" stroke="#31342e" stroke-width="18.0"/>
<line x1="135.1" y1="267.4" x2="175.7" y2="272.7" stroke="#31342e" stroke-width="18.0"/>
<line x1="175.7" y1="272.7" x2="182.0" y2="273.7" stroke="#31342e" stroke-width="18.0"/>
<line x1="182.0" y1="273.7" x2="202.2" y2="276.4" stroke="#31342e" stroke-width="18.0"/>
<line x1="202.2" y1="276.4" x2="430.0" y2="307.0" stroke="#31342e" stroke-width="18.0"/>
<line x1="430.0" y1="307.0" x2="503.4" y2="317.0" stroke="#31342e" stroke-width="18.0"/>
<line x1="503.4" y1="317.0" x2="642.3" y2="335.8" stroke="#31342e" stroke-width="18.0"/>
<line x1="642.3" y1="335.8" x2="656.8" y2="337.3" stroke="#31342e" stroke-width="18.0"/>
<line x1="656.8" y1="337.3" x2="675.7" y2="339.5" stroke="#31342e" stroke-width="18.0"/>
<line x1="675.7" y1="339.5" x2="695.7" y2="338.8" stroke="#31342e" stroke-width="18.0"/>
<line x1="695.7" y1="338.8" x2="898.7" y2="306.7" stroke="#31342e" stroke-width="18.0"/>
<line x1="898.7" y1="306.7" x2="912.4" y2="305.0" stroke="#31342e" stroke-width="18.0"/>
<line x1="912.4" y1="305.0" x2="924.1" y2="305.7" stroke="#31342e" stroke-width="18.0"/>
<line x1="924.1" y1="305.7" x2="927.0" y2="306.0" stroke="#31342e" stroke-width="18.0"/>
<line x1="927.0" y1="306.0" x2="945.1" y2="310.2" stroke="#31342e" stroke-width="18.0"/>
<line x1="945.1" y1="310.2" x2="950.9" y2="313.5" stroke="#31342e" stroke-width="18.0"/>
<line x1="113.3" y1="997.8" x2="117.9" y2="979.2" stroke="#31342e" stroke-width="11.3"/>
<line x1="117.9" y1="979.2" x2="119.1" y2="971.7" stroke="#31342e" stroke-width="11.3"/>
<line x1="119.1" y1="971.7" x2="121.2" y2="962.2" stroke="#31342e" stroke-width="11.3"/>
<line x1="121.2" y1="962.2" x2="125.6" y2="944.7" stroke="#31342e" stroke-width="11.3"/>
<line x1="-98.7" y1="231.6" x2="-70.4" y2="240.4" stroke="#31342e" stroke-width="18.0"/>
<line x1="125.6" y1="944.7" x2="144.0" y2="948.4" stroke="#31342e" stroke-width="11.3"/>
<line x1="144.0" y1="948.4" x2="168.5" y2="954.4" stroke="#31342e" stroke-width="11.3"/>
<line x1="941.9" y1="59.5" x2="974.9" y2="63.3" stroke="#31342e" stroke-width="11.3"/>
<line x1="974.9" y1="63.3" x2="988.8" y2="75.8" stroke="#31342e" stroke-width="11.3"/>
<line x1="950.9" y1="313.5" x2="960.7" y2="320.5" stroke="#31342e" stroke-width="18.0"/>
<line x1="960.7" y1="320.5" x2="970.2" y2="329.0" stroke="#31342e" stroke-width="18.0"/>
<line x1="970.2" y1="329.0" x2="976.5" y2="336.8" stroke="#31342e" stroke-width="18.0"/>
<line x1="976.5" y1="336.8" x2="984.3" y2="349.6" stroke="#31342e" stroke-width="18.0"/>
<line x1="984.3" y1="349.6" x2="988.8" y2="369.1" stroke="#31342e" stroke-width="18.0"/>
<line x1="-73.4" y1="978.2" x2="-22.2" y2="990.3" stroke="#31342e" stroke-width="11.3"/>
<line x1="673.5" y1="-99.3" x2="728.0" y2="-36.2" stroke="#31342e" stroke-width="11.3"/>
<line x1="728.0" y1="-36.2" x2="744.2" y2="-18.9" stroke="#31342e" stroke-width="11.3"/>
<line x1="744.2" y1="-18.9" x2="778.1" y2="17.2" stroke="#31342e" stroke-width="11.3"/>
<line x1="168.5" y1="954.4" x2="184.1" y2="958.0" stroke="#31342e" stroke-width="11.3"/>
<line x1="184.1" y1="958.0" x2="407.5" y2="1010.0" stroke="#31342e" stroke-width="11.3"/>
<line x1="-104.5" y1="337.3" x2="-39.4" y2="402.7" stroke="#31342e" stroke-width="11.3"/>
<line x1="-39.4" y1="402.7" x2="181.8" y2="466.8" stroke="#31342e" stroke-width="11.3"/>
<line x1="181.8" y1="466.8" x2="406.9" y2="532.2" stroke="#31342e" stroke-width="11.3"/>
<line x1="406.9" y1="532.2" x2="863.0" y2="663.9" stroke="#31342e" stroke-width="11.3"/>
<line x1="863.0" y1="663.9" x2="945.4" y2="667.2" stroke="#31342e" stroke-width="11.3"/>
<line x1="945.4" y1="667.2" x2="1017.1" y2="661.4" stroke="#31342e" stroke-width="11.3"/>
<line x1="939.8" y1="867.0" x2="840.1" y2="901.3" stroke="#31342e" stroke-width="11.3"/>
<line x1="840.1" y1="901.3" x2="707.1" y2="953.9" stroke="#31342e" stroke-width="11.3"/>
<line x1="707.1" y1="953.9" x2="546.3" y2="1012.1" stroke="#31342e" stroke-width="11.3"/>
<line x1="125.6" y1="944.7" x2="103.3" y2="939.4" stroke="#31342e" stroke-width="11.3"/>
<line x1="103.3" y1="939.4" x2="83.4" y2="934.4" stroke="#31342e" stroke-width="11.3"/>
<line x1="83.4" y1="934.4" x2="59.9" y2="928.6" stroke="#31342e" stroke-width="11.3"/>
<line x1="59.9" y1="928.6" x2="8.5" y2="915.9" stroke="#31342e" stroke-width="11.3"/>
<line x1="8.5" y1="915.9" x2="-26.3" y2="907.1" stroke="#31342e" stroke-width="11.3"/>
<line x1="-26.3" y1="907.1" x2="-46.1" y2="902.3" stroke="#31342e" stroke-width="11.3"/>
<line x1="-46.1" y1="902.3" x2="-101.1" y2="888.6" stroke="#31342e" stroke-width="11.3"/>
<line x1="959.5" y1="858.8" x2="939.8" y2="867.0" stroke="#31342e" stroke-width="11.3"/>
<line x1="728.0" y1="-36.2" x2="739.4" y2="-50.2" stroke="#31342e" stroke-width="11.3"/>
<line x1="739.4" y1="-50.2" x2="742.6" y2="-57.2" stroke="#31342e" stroke-width="11.3"/>
<line x1="742.6" y1="-57.2" x2="744.7" y2="-64.7" stroke="#31342e" stroke-width="11.3"/>
<line x1="744.7" y1="-64.7" x2="744.5" y2="-72.7" stroke="#31342e" stroke-width="11.3"/>
<line x1="778.1" y1="17.2" x2="781.1" y2="20.4" stroke="#31342e" stroke-width="11.3"/>
<line x1="781.1" y1="20.4" x2="848.2" y2="91.8" stroke="#31342e" stroke-width="11.3"/>
<line x1="848.2" y1="91.8" x2="859.1" y2="103.6" stroke="#31342e" stroke-width="11.3"/>
<line x1="859.1" y1="103.6" x2="876.5" y2="122.9" stroke="#31342e" stroke-width="11.3"/>
<line x1="876.5" y1="122.9" x2="923.1" y2="199.5" stroke="#31342e" stroke-width="11.3"/>
<line x1="923.1" y1="199.5" x2="930.1" y2="211.1" stroke="#31342e" stroke-width="11.3"/>
<line x1="930.1" y1="211.1" x2="944.5" y2="234.8" stroke="#31342e" stroke-width="11.3"/>
<line x1="944.5" y1="234.8" x2="956.1" y2="258.9" stroke="#31342e" stroke-width="11.3"/>
<line x1="956.1" y1="258.9" x2="966.5" y2="275.2" stroke="#31342e" stroke-width="11.3"/>
<line x1="966.5" y1="275.2" x2="959.8" y2="291.5" stroke="#31342e" stroke-width="11.3"/>
<line x1="959.8" y1="291.5" x2="950.9" y2="313.5" stroke="#31342e" stroke-width="11.3"/>
<polygon points="938.8,228.8 937.7,173.6 933.6,173.7 934.7,228.9" fill="#5c6058" stroke="#9aa094" stroke-width="0.7"/>
<polygon points="937.7,173.6 936.2,93.4 932.2,93.4 933.6,173.7" fill="#5c6058" stroke="#9aa094" stroke-width="0.7"/>
<polygon points="936.3,53.3 936.3,36.3 932.2,36.3 932.2,53.3" fill="#5c6058" stroke="#9aa094" stroke-width="0.7"/>
<polygon points="936.3,36.3 935.9,1.4 931.9,1.4 932.2,36.3" fill="#5c6058" stroke="#9aa094" stroke-width="0.7"/>
<polygon points="935.9,1.4 936.5,-33.3 932.4,-33.6 931.9,1.4" fill="#5c6058" stroke="#9aa094" stroke-width="0.7"/>
<polygon points="936.5,-33.3 942.0,-75.3 938.0,-76.1 932.4,-33.6" fill="#5c6058" stroke="#9aa094" stroke-width="0.7"/>
<polygon points="937.3,107.3 925.2,118.0 927.5,121.9 940.3,110.7" fill="#5c6058" stroke="#9aa094" stroke-width="0.7"/>
<polygon points="925.2,118.0 901.4,127.2 902.3,131.7 927.5,121.9" fill="#5c6058" stroke="#9aa094" stroke-width="0.7"/>
<polygon points="901.4,127.2 893.0,127.5 893.2,132.0 902.3,131.7" fill="#5c6058" stroke="#9aa094" stroke-width="0.7"/>
<polygon points="893.0,127.5 883.0,128.1 883.3,132.6 893.2,132.0" fill="#5c6058" stroke="#9aa094" stroke-width="0.7"/>
<polygon points="933.9,90.1 929.1,99.6 925.5,96.8 929.9,88.0" fill="#5c6058" stroke="#9aa094" stroke-width="0.7"/>
<polygon points="929.1,99.6 919.3,108.2 916.9,104.3 925.5,96.8" fill="#5c6058" stroke="#9aa094" stroke-width="0.7"/>
<polygon points="919.3,108.2 899.1,116.0 898.2,111.6 916.9,104.3" fill="#5c6058" stroke="#9aa094" stroke-width="0.7"/>
<polygon points="899.1,116.0 892.4,116.3 892.2,111.8 898.2,111.6" fill="#5c6058" stroke="#9aa094" stroke-width="0.7"/>
<polygon points="892.4,116.3 882.3,116.9 882.1,112.4 892.2,111.8" fill="#5c6058" stroke="#9aa094" stroke-width="0.7"/>
<polygon points="27.0,244.5 55.6,248.2 56.4,242.4 27.7,238.7" fill="#5c6058" stroke="#9aa094" stroke-width="0.7"/>
<polygon points="55.6,248.2 94.5,253.5 95.3,247.7 56.4,242.4" fill="#5c6058" stroke="#9aa094" stroke-width="0.7"/>
<polygon points="94.5,253.5 121.3,257.2 122.0,251.4 95.3,247.7" fill="#5c6058" stroke="#9aa094" stroke-width="0.7"/>
<polygon points="121.3,257.2 136.0,258.5 136.7,252.6 122.0,251.4" fill="#5c6058" stroke="#9aa094" stroke-width="0.7"/>
<polygon points="136.0,258.5 177.0,263.8 177.8,258.0 136.7,252.6" fill="#5c6058" stroke="#9aa094" stroke-width="0.7"/>
<polygon points="177.0,263.8 183.3,264.8 184.2,259.0 177.8,258.0" fill="#5c6058" stroke="#9aa094" stroke-width="0.7"/>
<polygon points="183.3,264.8 203.4,267.5 204.2,261.7 184.2,259.0" fill="#5c6058" stroke="#9aa094" stroke-width="0.7"/>
<polygon points="203.4,267.5 431.2,298.1 432.0,292.3 204.2,261.7" fill="#5c6058" stroke="#9aa094" stroke-width="0.7"/>
<polygon points="431.2,298.1 504.6,308.1 505.4,302.3 432.0,292.3" fill="#5c6058" stroke="#9aa094" stroke-width="0.7"/>
<polygon points="504.6,308.1 643.3,326.8 644.0,321.0 505.4,302.3" fill="#5c6058" stroke="#9aa094" stroke-width="0.7"/>
<polygon points="643.3,326.8 657.8,328.3 658.5,322.5 644.0,321.0" fill="#5c6058" stroke="#9aa094" stroke-width="0.7"/>
<polygon points="657.8,328.3 676.0,330.5 676.3,324.7 658.5,322.5" fill="#5c6058" stroke="#9aa094" stroke-width="0.7"/>
<polygon points="676.0,330.5 694.8,329.8 694.2,324.0 676.3,324.7" fill="#5c6058" stroke="#9aa094" stroke-width="0.7"/>
<polygon points="694.8,329.8 897.4,297.8 896.6,292.0 694.2,324.0" fill="#5c6058" stroke="#9aa094" stroke-width="0.7"/>
<polygon points="897.4,297.8 912.1,295.9 911.9,290.1 896.6,292.0" fill="#5c6058" stroke="#9aa094" stroke-width="0.7"/>
<polygon points="912.1,295.9 924.8,296.8 925.3,290.9 911.9,290.1" fill="#5c6058" stroke="#9aa094" stroke-width="0.7"/>
<polygon points="924.8,296.8 928.4,297.1 929.3,291.3 925.3,290.9" fill="#5c6058" stroke="#9aa094" stroke-width="0.7"/>
<polygon points="928.4,297.1 944.3,300.8 945.6,295.1 929.3,291.3" fill="#5c6058" stroke="#9aa094" stroke-width="0.7"/>
<polygon points="24.6,262.3 53.2,266.1 52.4,271.9 23.8,268.1" fill="#5c6058" stroke="#9aa094" stroke-width="0.7"/>
<polygon points="53.2,266.1 92.0,271.3 91.2,277.1 52.4,271.9" fill="#5c6058" stroke="#9aa094" stroke-width="0.7"/>
<polygon points="92.0,271.3 119.3,275.1 118.7,280.9 91.2,277.1" fill="#5c6058" stroke="#9aa094" stroke-width="0.7"/>
<polygon points="119.3,275.1 134.1,276.4 133.5,282.2 118.7,280.9" fill="#5c6058" stroke="#9aa094" stroke-width="0.7"/>
<polygon points="134.1,276.4 174.4,281.6 173.6,287.4 133.5,282.2" fill="#5c6058" stroke="#9aa094" stroke-width="0.7"/>
<polygon points="174.4,281.6 180.7,282.6 179.8,288.4 173.6,287.4" fill="#5c6058" stroke="#9aa094" stroke-width="0.7"/>
<polygon points="180.7,282.6 201.0,285.3 200.2,291.1 179.8,288.4" fill="#5c6058" stroke="#9aa094" stroke-width="0.7"/>
<polygon points="201.0,285.3 428.8,315.9 428.0,321.7 200.2,291.1" fill="#5c6058" stroke="#9aa094" stroke-width="0.7"/>
<polygon points="428.8,315.9 502.2,325.9 501.4,331.7 428.0,321.7" fill="#5c6058" stroke="#9aa094" stroke-width="0.7"/>
<polygon points="502.2,325.9 641.2,344.7 640.5,350.5 501.4,331.7" fill="#5c6058" stroke="#9aa094" stroke-width="0.7"/>
<polygon points="641.2,344.7 655.8,346.2 655.2,352.0 640.5,350.5" fill="#5c6058" stroke="#9aa094" stroke-width="0.7"/>
<polygon points="655.8,346.2 675.3,348.6 675.0,354.4 655.2,352.0" fill="#5c6058" stroke="#9aa094" stroke-width="0.7"/>
<polygon points="675.3,348.6 696.6,347.8 697.1,353.6 675.0,354.4" fill="#5c6058" stroke="#9aa094" stroke-width="0.7"/>
<polygon points="696.6,347.8 899.9,315.6 900.8,321.4 697.1,353.6" fill="#5c6058" stroke="#9aa094" stroke-width="0.7"/>
<polygon points="899.9,315.6 912.7,314.0 912.8,319.9 900.8,321.4" fill="#5c6058" stroke="#9aa094" stroke-width="0.7"/>
<polygon points="912.7,314.0 923.5,314.7 923.0,320.5 912.8,319.9" fill="#5c6058" stroke="#9aa094" stroke-width="0.7"/>
<polygon points="923.5,314.7 925.5,314.9 924.6,320.7 923.0,320.5" fill="#5c6058" stroke="#9aa094" stroke-width="0.7"/>
<polygon points="925.5,314.9 940.2,318.3 938.8,324.0 924.6,320.7" fill="#5c6058" stroke="#9aa094" stroke-width="0.7"/>
<polygon points="132.8,940.4 145.3,942.9 146.2,939.0 133.6,936.4" fill="#5c6058" stroke="#9aa094" stroke-width="0.7"/>
<polygon points="145.3,942.9 169.8,949.0 170.8,945.0 146.2,939.0" fill="#5c6058" stroke="#9aa094" stroke-width="0.7"/>
<polygon points="736.4,-35.5 748.3,-22.7 751.2,-25.5 739.3,-38.3" fill="#5c6058" stroke="#9aa094" stroke-width="0.7"/>
<polygon points="748.3,-22.7 782.2,13.3 785.2,10.6 751.2,-25.5" fill="#5c6058" stroke="#9aa094" stroke-width="0.7"/>
<polygon points="728.1,-27.8 740.1,-15.0 737.1,-12.3 725.2,-25.0" fill="#5c6058" stroke="#9aa094" stroke-width="0.7"/>
<polygon points="740.1,-15.0 774.0,21.0 771.1,23.8 737.1,-12.3" fill="#5c6058" stroke="#9aa094" stroke-width="0.7"/>
<polygon points="-36.5,397.7 183.4,461.4 184.5,457.5 -34.3,394.1" fill="#5c6058" stroke="#9aa094" stroke-width="0.7"/>
<polygon points="183.4,461.4 408.5,526.8 409.6,522.9 184.5,457.5" fill="#5c6058" stroke="#9aa094" stroke-width="0.7"/>
<polygon points="408.5,526.8 863.9,658.3 864.5,654.3 409.6,522.9" fill="#5c6058" stroke="#9aa094" stroke-width="0.7"/>
<polygon points="863.9,658.3 945.3,661.5 945.2,657.5 864.5,654.3" fill="#5c6058" stroke="#9aa094" stroke-width="0.7"/>
<polygon points="-42.4,407.7 180.3,472.2 179.1,476.1 -44.5,411.3" fill="#5c6058" stroke="#9aa094" stroke-width="0.7"/>
<polygon points="180.3,472.2 405.4,537.6 404.3,541.4 179.1,476.1" fill="#5c6058" stroke="#9aa094" stroke-width="0.7"/>
<polygon points="405.4,537.6 862.1,669.5 861.4,673.5 404.3,541.4" fill="#5c6058" stroke="#9aa094" stroke-width="0.7"/>
<polygon points="862.1,669.5 945.5,672.8 945.6,676.8 861.4,673.5" fill="#5c6058" stroke="#9aa094" stroke-width="0.7"/>
<polygon points="941.6,872.3 842.1,906.6 843.5,910.4 942.9,876.2" fill="#5c6058" stroke="#9aa094" stroke-width="0.7"/>
<polygon points="842.1,906.6 709.1,959.2 710.5,963.0 843.5,910.4" fill="#5c6058" stroke="#9aa094" stroke-width="0.7"/>
<polygon points="938.0,861.7 838.2,896.1 836.8,892.3 936.6,857.9" fill="#5c6058" stroke="#9aa094" stroke-width="0.7"/>
<polygon points="838.2,896.1 705.1,948.7 703.7,944.9 836.8,892.3" fill="#5c6058" stroke="#9aa094" stroke-width="0.7"/>
<polygon points="120.9,937.8 104.6,934.0 105.6,930.0 121.8,933.8" fill="#5c6058" stroke="#9aa094" stroke-width="0.7"/>
<polygon points="104.6,934.0 84.8,928.9 85.7,925.0 105.6,930.0" fill="#5c6058" stroke="#9aa094" stroke-width="0.7"/>
<polygon points="84.8,928.9 61.2,923.2 62.2,919.2 85.7,925.0" fill="#5c6058" stroke="#9aa094" stroke-width="0.7"/>
<polygon points="61.2,923.2 9.9,910.4 10.9,906.5 62.2,919.3" fill="#5c6058" stroke="#9aa094" stroke-width="0.7"/>
<polygon points="9.9,910.4 -24.9,901.6 -23.9,897.7 10.9,906.5" fill="#5c6058" stroke="#9aa094" stroke-width="0.7"/>
<polygon points="-24.9,901.6 -44.8,896.9 -43.9,892.9 -23.9,897.7" fill="#5c6058" stroke="#9aa094" stroke-width="0.7"/>
<polygon points="-44.7,896.9 -99.8,883.1 -98.8,879.2 -43.8,893.0" fill="#5c6058" stroke="#9aa094" stroke-width="0.7"/>
<polygon points="727.6,-44.5 734.6,-53.2 731.1,-55.3 724.4,-47.1" fill="#5c6058" stroke="#9aa094" stroke-width="0.7"/>
<polygon points="736.3,-37.4 744.3,-47.2 747.7,-45.1 739.4,-34.8" fill="#5c6058" stroke="#9aa094" stroke-width="0.7"/>
<polygon points="782.3,13.4 785.2,16.6 788.2,13.9 785.2,10.6" fill="#5c6058" stroke="#9aa094" stroke-width="0.7"/>
<polygon points="785.2,16.6 852.3,88.0 855.3,85.2 788.2,13.9" fill="#5c6058" stroke="#9aa094" stroke-width="0.7"/>
<polygon points="852.3,88.0 863.3,99.8 866.3,97.1 855.3,85.2" fill="#5c6058" stroke="#9aa094" stroke-width="0.7"/>
<polygon points="863.3,99.8 876.6,114.5 879.6,111.8 866.3,97.1" fill="#5c6058" stroke="#9aa094" stroke-width="0.7"/>
<polygon points="884.5,125.3 927.9,196.6 931.4,194.5 888.0,123.2" fill="#5c6058" stroke="#9aa094" stroke-width="0.7"/>
<polygon points="927.9,196.6 934.9,208.1 938.4,206.0 931.4,194.5" fill="#5c6058" stroke="#9aa094" stroke-width="0.7"/>
<polygon points="774.0,21.0 777.0,24.3 774.0,27.0 771.0,23.7" fill="#5c6058" stroke="#9aa094" stroke-width="0.7"/>
<polygon points="777.0,24.3 844.1,95.7 841.2,98.4 774.0,27.0" fill="#5c6058" stroke="#9aa094" stroke-width="0.7"/>
<polygon points="844.1,95.7 855.0,107.4 852.0,110.1 841.2,98.4" fill="#5c6058" stroke="#9aa094" stroke-width="0.7"/>
<polygon points="855.0,107.4 868.2,122.1 865.2,124.8 852.0,110.1" fill="#5c6058" stroke="#9aa094" stroke-width="0.7"/>
<polygon points="874.9,131.1 918.3,202.5 914.8,204.6 871.5,133.2" fill="#5c6058" stroke="#9aa094" stroke-width="0.7"/>
<polygon points="918.3,202.5 925.3,214.0 921.9,216.1 914.8,204.6" fill="#5c6058" stroke="#9aa094" stroke-width="0.7"/>
<polygon points="925.3,214.0 936.5,232.5 933.1,234.6 921.9,216.1" fill="#5c6058" stroke="#9aa094" stroke-width="0.7"/>
<polygon points="942.2,242.9 951.2,261.6 947.7,263.6 938.5,244.6" fill="#5c6058" stroke="#9aa094" stroke-width="0.7"/>
<polygon points="938.8,228.8 934.7,228.9 933.1,234.6 936.5,232.5" fill="#6d6250" stroke="#c2a978" stroke-width="0.7"/>
<polygon points="933.9,90.1 929.9,88.0 932.2,93.4 936.2,93.4" fill="#6d6250" stroke="#c2a978" stroke-width="0.7"/>
<polygon points="882.3,116.9 882.1,112.4 879.6,111.8 876.6,114.5" fill="#6d6250" stroke="#c2a978" stroke-width="0.7"/>
<polygon points="944.3,300.8 945.6,295.1 945.5,301.0 949.3,302.5" fill="#6d6250" stroke="#c2a978" stroke-width="0.7"/>
<polygon points="736.3,-37.4 739.4,-34.8 739.3,-38.3 736.4,-35.5" fill="#6d6250" stroke="#c2a978" stroke-width="0.7"/>
<circle cx="198.3" cy="260.9" r="2.7" fill="none" stroke="#7a6a3a" stroke-width="1.5"/>
<circle cx="164.5" cy="268.5" r="2.7" fill="none" stroke="#7a6a3a" stroke-width="1.5"/>
<circle cx="502.7" cy="322.4" r="2.7" fill="none" stroke="#7a6a3a" stroke-width="1.5"/>
<circle cx="848.2" cy="91.8" r="2.7" fill="none" stroke="#e8c46a" stroke-width="1.5"/>
<circle cx="892.7" cy="121.9" r="2.7" fill="none" stroke="#e8c46a" stroke-width="1.5"/>
<circle cx="154.6" cy="238.4" r="2.7" fill="none" stroke="#e8c46a" stroke-width="1.5"/>
<circle cx="175.7" cy="272.7" r="2.7" fill="none" stroke="#e8c46a" stroke-width="1.5"/>
<circle cx="178.8" cy="300.5" r="2.7" fill="none" stroke="#e8c46a" stroke-width="1.5"/>
<circle cx="182.0" cy="273.7" r="2.7" fill="none" stroke="#e8c46a" stroke-width="1.5"/>
<circle cx="503.4" cy="317.0" r="2.7" fill="none" stroke="#e8c46a" stroke-width="1.5"/>
<circle cx="499.9" cy="343.6" r="2.7" fill="none" stroke="#e8c46a" stroke-width="1.5"/>
<circle cx="201.7" cy="261.4" r="2.7" fill="none" stroke="#e8c46a" stroke-width="1.5"/>
<text x="12" y="26" fill="#cfd6e6" font-family="monospace" font-size="15">4.4045, 45.4445 · rayon 200 m · 95 emprises, 97 bandes, 12 passages pietons, 22 sols</text>
<text x="12" y="46" fill="#9aa094" font-family="monospace" font-size="12">gris clair = trottoir · ocre = raccord d'angle · cercle jaune = passage pieton OSM</text>
</svg>