<svg xmlns="http://www.w3.org/2000/svg" width="900" height="900" viewBox="0 0 900 900">
<rect width="100%" height="100%" fill="#0e1526"/>
<polygon points="-42.5,617.2 -42.5,615.3 -54.8,573.4 -59.6,555.8 -60.1,552.1 -80.7,480.1 -134.8,495.7 -195.0,512.6 -201.1,525.1 -189.7,553.3 -147.1,657.9 -141.4,655.4" fill="#1b2233" stroke="#2c3550" stroke-width="1"/>
<polygon points="-320.2,-109.2 -378.6,-96.6 -431.3,-85.4 -441.4,-72.2 -373.8,95.6 -299.1,66.2 -283.7,59.9" fill="#1b2233" stroke="#2c3550" stroke-width="1"/>
<polygon points="-266.1,966.6 -256.5,979.7 -253.4,1000.4 -264.8,1002.3 -262.6,1009.8 -226.6,1004.8 -227.5,998.5 -233.6,961.6" fill="#1b2233" stroke="#2c3550" stroke-width="1"/>
<polygon points="86.2,1128.1 40.5,1143.8 56.3,1185.1 59.0,1192.6 93.2,1180.1 91.5,1166.3" fill="#1b2233" stroke="#2c3550" stroke-width="1"/>
<polygon points="717.1,292.2 558.5,387.4 628.8,508.2 663.5,481.9 769.8,412.4 782.1,404.3 766.8,378.0" fill="#1b2233" stroke="#2c3550" stroke-width="1"/>
<polygon points="296.7,718.0 303.3,749.9 309.4,776.9 396.0,763.7 402.6,748.1 392.0,729.9 372.7,697.3" fill="#1b2233" stroke="#2c3550" stroke-width="1"/>
<polygon points="-160.7,941.5 -158.5,948.4 -149.3,946.6 -137.0,982.9 -80.3,972.9 -83.4,964.7 -95.7,932.8 -96.6,931.5" fill="#1b2233" stroke="#2c3550" stroke-width="1"/>
<polygon points="-81.2,604.7 -83.4,599.0 -107.1,607.8 -104.5,613.4" fill="#1b2233" stroke="#2c3550" stroke-width="1"/>
<polygon points="113.0,90.6 95.9,61.8 78.7,33.0 8.5,76.8 36.1,120.0 14.2,133.8 21.2,145.7" fill="#1b2233" stroke="#2c3550" stroke-width="1"/>
<polygon points="54.6,999.2 -7.8,1015.4 6.3,1052.4 65.6,1035.5 61.6,1022.9" fill="#1b2233" stroke="#2c3550" stroke-width="1"/>
<polygon points="864.7,589.0 872.7,584.0 862.1,562.7 852.9,569.0" fill="#1b2233" stroke="#2c3550" stroke-width="1"/>
<polygon points="-227.5,998.5 -226.6,1004.8 -219.6,1044.2 -216.9,1056.8 -184.0,1050.5 -190.6,1012.9 -194.5,992.9" fill="#1b2233" stroke="#2c3550" stroke-width="1"/>
<polygon points="840.1,426.2 797.1,453.8 798.4,456.9 795.8,458.8 808.1,478.2 805.4,480.1 834.0,524.5 845.9,543.9 849.8,541.4 862.1,562.7 906.9,534.5 878.8,490.1 880.1,489.4 881.0,484.4 877.0,478.2 874.0,473.2 868.7,471.9 868.3,472.5" fill="#1b2233" stroke="#2c3550" stroke-width="1"/>
<polygon points="946.5,684.8 941.6,687.9 888.9,721.1 899.0,735.5 893.7,739.3 920.5,780.6 924.1,778.7 976.8,743.0 955.7,711.7 961.4,708.0 950.9,691.7" fill="#1b2233" stroke="#2c3550" stroke-width="1"/>
<polygon points="141.1,-253.2 128.8,-273.2 111.7,-262.6 124.4,-242.5" fill="#1b2233" stroke="#2c3550" stroke-width="1"/>
<polygon points="1046.2,849.5 1011.1,872.0 1004.9,887.1 1043.1,904.0 1064.2,878.3" fill="#1b2233" stroke="#2c3550" stroke-width="1"/>
<polygon points="178.9,513.9 184.6,528.9 203.1,574.0 182.0,582.7 181.6,583.4 186.8,597.2 210.1,587.1 264.6,564.6 288.8,554.6 270.3,523.9 247.9,485.1" fill="#1b2233" stroke="#2c3550" stroke-width="1"/>
<polygon points="325.7,1079.3 332.3,1100.6 366.5,1090.6 359.5,1068.7" fill="#1b2233" stroke="#2c3550" stroke-width="1"/>
<polygon points="179.4,203.9 106.4,245.9 131.0,287.2 99.8,302.2 103.4,309.7 114.8,319.1 124.4,351.1 236.5,317.9 239.6,305.4 209.7,254.6" fill="#1b2233" stroke="#2c3550" stroke-width="1"/>
<polygon points="-258.2,708.0 -235.4,765.6 -171.7,742.4 -178.3,725.5 -181.8,716.1 -191.0,693.0 -196.7,688.6" fill="#1b2233" stroke="#2c3550" stroke-width="1"/>
<polygon points="1.4,456.3 21.2,527.6 22.5,533.3 104.2,509.5 111.3,507.6 109.5,499.5 89.7,430.6 51.9,441.9" fill="#1b2233" stroke="#2c3550" stroke-width="1"/>
<polygon points="1177.6,225.8 1204.8,217.1 1201.7,205.8 1184.2,211.4 1174.1,214.6" fill="#1b2233" stroke="#2c3550" stroke-width="1"/>
<polygon points="900.3,942.8 923.6,980.4 935.0,973.5 944.3,989.1 932.4,996.0 980.7,1077.4 993.0,1071.2 1003.1,1087.4 991.3,1094.3 1002.7,1114.4 1049.3,1089.9 1074.8,1075.5 1060.7,1052.4 1122.6,1014.2 926.7,925.3" fill="#1b2233" stroke="#2c3550" stroke-width="1"/>
<polygon points="-54.8,573.4 -42.5,615.3 -42.5,617.2 -31.5,655.4 19.0,643.5 50.2,636.6 40.1,599.0 26.5,549.6" fill="#1b2233" stroke="#2c3550" stroke-width="1"/>
<polygon points="997.4,498.2 958.3,511.4 1004.0,648.5 1040.5,647.2 1033.5,626.0 1074.8,612.2 1081.8,623.4 1083.1,623.4 1189.9,552.1 1166.6,482.6 1154.3,445.0" fill="#1b2233" stroke="#2c3550" stroke-width="1"/>
<polygon points="-257.4,784.4 -251.2,812.6 -233.2,810.7 -219.6,808.8 -218.7,808.8 -225.3,792.5 -234.5,796.9 -241.5,778.1" fill="#1b2233" stroke="#2c3550" stroke-width="1"/>
<polygon points="-246.8,147.6 -238.9,168.2 -235.4,171.4 -201.1,157.6 -200.2,157.6 -181.3,150.1 -180.0,145.7 -188.8,123.8" fill="#1b2233" stroke="#2c3550" stroke-width="1"/>
<polygon points="226.4,930.9 208.4,936.5 201.8,938.4 201.8,939.7 160.5,952.2 155.2,932.2 138.9,923.4 106.0,934.0 99.4,950.9 105.1,971.0 108.2,981.6 125.8,976.6 143.3,1039.2 182.9,1028.0 176.3,1003.5 209.7,994.1 231.6,1065.5 233.4,1071.8 262.4,1063.0 280.0,1058.0 256.7,979.1 291.0,969.1 322.6,1078.1 323.5,1079.3 325.7,1079.3 359.5,1068.7 359.1,1066.2 361.7,1064.9 313.8,899.6 273.8,911.5 275.1,917.8 233.8,930.3 233.8,928.4" fill="#1b2233" stroke="#2c3550" stroke-width="1"/>
<polygon points="854.6,133.8 883.2,218.9 908.2,292.2 932.8,366.1 961.0,449.4 979.0,443.1 1019.4,429.3 1002.3,378.6 1010.6,376.1 1011.9,379.2 1076.5,358.6 1053.7,294.1 990.0,315.4 990.4,319.1 983.4,321.6 950.4,222.7 957.5,220.2 958.3,222.7 1022.9,200.8 999.6,132.5 993.0,134.4 994.4,138.8 937.2,158.2 937.7,161.3 930.7,163.8 914.0,114.4" fill="#1b2233" stroke="#2c3550" stroke-width="1"/>
<polygon points="1101.6,285.3 1118.7,279.7 1104.6,234.6 1086.2,240.2" fill="#1b2233" stroke="#2c3550" stroke-width="1"/>
<polygon points="-87.8,809.4 -7.4,788.1 -17.9,773.1 -75.0,729.9 -115.0,707.4 -123.8,715.5 -91.3,800.7" fill="#1b2233" stroke="#2c3550" stroke-width="1"/>
<polygon points="-115.4,-74.7 -111.1,-52.2 -101.8,-1.5 -99.2,11.1 -93.9,41.1 -47.3,10.4 -55.3,-21.5 -71.9,-84.8" fill="#1b2233" stroke="#2c3550" stroke-width="1"/>
<polygon points="992.2,480.7 997.4,498.2 1154.3,445.0 1148.6,427.5 1064.7,455.6 1061.1,446.2 1045.3,451.3 1048.4,461.3" fill="#1b2233" stroke="#2c3550" stroke-width="1"/>
<polygon points="283.0,868.3 298.9,865.2 294.5,836.3 277.8,839.5" fill="#1b2233" stroke="#2c3550" stroke-width="1"/>
<polygon points="-165.5,855.8 -180.5,804.4 -218.7,808.8 -219.6,808.8 -214.7,821.3 -230.1,823.8 -233.2,810.7 -251.2,812.6 -239.3,867.0 -202.4,861.4" fill="#1b2233" stroke="#2c3550" stroke-width="1"/>
<polygon points="769.8,412.4 663.5,481.9 691.2,526.4 795.8,458.8 798.4,456.9 797.1,453.8" fill="#1b2233" stroke="#2c3550" stroke-width="1"/>
<polygon points="148.6,683.6 158.7,723.0 168.8,763.7 252.3,743.0 249.7,729.3 239.6,677.9 236.5,662.9 200.0,683.6 185.9,687.3" fill="#1b2233" stroke="#2c3550" stroke-width="1"/>
<polygon points="-319.7,925.3 -315.3,971.6 -295.1,969.7 -295.1,971.0 -274.5,967.8 -266.1,966.6 -233.6,961.6 -234.9,952.8 -242.4,913.4 -281.1,919.0" fill="#1b2233" stroke="#2c3550" stroke-width="1"/>
<polygon points="35.3,-40.3 -39.0,5.4 -47.3,10.4 -93.9,41.1 -86.9,55.5 -29.3,19.2 -32.8,12.9 -21.0,5.4 12.0,62.4 0.1,69.3 -6.0,59.9 -45.6,85.6 -35.0,103.7 8.5,76.8 78.7,33.0 56.8,-3.3" fill="#1b2233" stroke="#2c3550" stroke-width="1"/>
<polygon points="-96.6,931.5 -95.7,932.8 -87.8,931.5 -102.7,892.1 -103.6,892.1 -164.2,901.5 -214.3,909.0 -206.4,948.4 -202.4,947.8 -160.7,941.5" fill="#1b2233" stroke="#2c3550" stroke-width="1"/>
<polygon points="805.4,16.1 806.3,17.3 823.4,68.7 845.9,136.9 854.6,133.8 914.0,114.4 930.2,110.0 924.5,92.5 924.1,91.2 899.9,98.7 890.2,70.5 893.3,69.9 891.1,64.9 890.2,64.9 885.0,47.4 882.8,48.6 865.6,-3.3" fill="#1b2233" stroke="#2c3550" stroke-width="1"/>
<polygon points="772.5,721.1 766.8,712.4 757.1,719.3 722.8,661.6 718.4,655.4 657.4,695.5 672.8,721.1 700.0,766.8" fill="#1b2233" stroke="#2c3550" stroke-width="1"/>
<polygon points="10.6,-318.9 29.1,-278.9 48.4,-290.8 67.8,-302.7 91.5,-317.7 110.4,-329.0 91.5,-367.8 20.3,-339.6 25.1,-327.1" fill="#1b2233" stroke="#2c3550" stroke-width="1"/>
<polygon points="1011.1,795.6 976.8,818.8 1011.1,872.0 1046.2,849.5" fill="#1b2233" stroke="#2c3550" stroke-width="1"/>
<polygon points="-130.8,-148.6 -175.2,-139.2 -191.5,-136.1 -176.5,-62.2 -115.4,-74.7" fill="#1b2233" stroke="#2c3550" stroke-width="1"/>
<polygon points="93.7,533.3 108.6,584.6 131.9,579.6 120.0,538.3 114.8,519.5 107.7,521.4 98.1,523.9" fill="#1b2233" stroke="#2c3550" stroke-width="1"/>
<polygon points="-109.3,50.5 -148.4,74.9 -136.5,103.1 -115.9,153.8 -75.9,128.8" fill="#1b2233" stroke="#2c3550" stroke-width="1"/>
<polygon points="1096.7,1161.3 1198.7,1311.6 1224.1,1294.1 1166.1,1208.3 1122.2,1143.8" fill="#1b2233" stroke="#2c3550" stroke-width="1"/>
<polygon points="1176.7,186.4 1184.2,211.4 1201.7,205.8 1211.8,203.3 1275.5,184.5 1277.7,183.9 1264.6,176.4 1252.3,179.5 1249.2,165.7 1220.6,148.8 1227.2,172.0 1180.2,185.8" fill="#1b2233" stroke="#2c3550" stroke-width="1"/>
<polygon points="1060.7,1052.4 1074.8,1075.5 1076.1,1075.5 1154.7,1029.2 1153.4,1028.6 1122.6,1014.2" fill="#1b2233" stroke="#2c3550" stroke-width="1"/>
<polygon points="1218.4,1172.6 1280.8,1266.5 1296.2,1254.6 1344.5,1218.3 1323.0,1187.0 1284.3,1128.1 1260.6,1144.4 1257.1,1139.4 1244.8,1147.6 1248.3,1152.6 1243.5,1156.3" fill="#1b2233" stroke="#2c3550" stroke-width="1"/>
<polygon points="-224.0,227.1 -158.5,200.2 -156.3,199.5 -158.5,194.5 -155.4,193.3 -158.9,187.0 -161.1,188.3 -169.5,170.7 -223.1,192.0 -219.1,202.7 -231.4,208.3" fill="#1b2233" stroke="#2c3550" stroke-width="1"/>
<polygon points="145.5,1108.1 151.2,1126.3 172.8,1119.4 167.5,1101.2" fill="#1b2233" stroke="#2c3550" stroke-width="1"/>
<polygon points="906.9,534.5 862.1,562.7 872.7,584.0 875.3,589.0 880.6,599.7 893.7,626.6 899.9,639.7 908.7,633.5 934.2,617.8 920.1,574.6" fill="#1b2233" stroke="#2c3550" stroke-width="1"/>
<polygon points="-146.2,984.1 -140.0,1000.4 -132.6,1019.2 -123.4,1041.7 -128.6,1044.2 -126.0,1050.5 -120.7,1048.0 -113.2,1067.4 -106.2,1084.3 -43.8,1062.4 -65.8,1008.5 -69.3,999.8 -80.3,972.9 -137.0,982.9" fill="#1b2233" stroke="#2c3550" stroke-width="1"/>
<polygon points="1120.9,195.8 1131.4,227.1 1174.1,214.6 1184.2,211.4 1176.7,186.4 1180.2,185.8 1178.0,179.5" fill="#1b2233" stroke="#2c3550" stroke-width="1"/>
<polygon points="71.7,632.2 116.1,806.9 146.8,801.9 177.2,797.5 168.8,763.7 158.7,723.0 142.9,726.8 140.7,718.0 136.7,716.7 115.7,722.4 114.3,717.4 121.8,705.5 110.4,659.8 140.7,651.6 133.2,617.8" fill="#1b2233" stroke="#2c3550" stroke-width="1"/>
<polygon points="1033.0,79.3 1035.7,87.4 1055.9,81.8 1054.1,73.0" fill="#1b2233" stroke="#2c3550" stroke-width="1"/>
<polygon points="-22.7,962.2 -27.6,963.5 -18.8,987.3 -17.5,991.0 47.1,974.1 40.5,947.2" fill="#1b2233" stroke="#2c3550" stroke-width="1"/>
<polygon points="340.6,829.5 294.5,836.3 298.9,865.2 299.7,865.2 344.6,857.6" fill="#1b2233" stroke="#2c3550" stroke-width="1"/>
<polygon points="-254.3,1053.6 -249.4,1080.6 -242.9,1113.7 -234.9,1152.6 -199.4,1143.2 -206.0,1108.7 -216.9,1056.8 -219.6,1044.2" fill="#1b2233" stroke="#2c3550" stroke-width="1"/>
<polygon points="717.1,292.2 766.8,378.0 839.7,331.7 780.0,152.6 729.4,168.8 736.0,190.1 678.5,225.8 680.7,229.6" fill="#1b2233" stroke="#2c3550" stroke-width="1"/>
<polygon points="40.5,732.4 19.0,643.5 -31.5,655.4 -31.5,656.6 -28.5,670.4 -26.3,681.1 -90.8,696.1 -24.5,748.7" fill="#1b2233" stroke="#2c3550" stroke-width="1"/>
<polygon points="-242.0,1189.5 -250.3,1156.3 -309.6,1172.6 -300.0,1205.8" fill="#1b2233" stroke="#2c3550" stroke-width="1"/>
<polygon points="19.0,-67.8 -55.3,-21.5 -39.0,5.4 35.3,-40.3" fill="#1b2233" stroke="#2c3550" stroke-width="1"/>
<polygon points="6.3,1052.4 9.8,1062.4 21.2,1092.5 78.3,1076.8 73.5,1061.8 65.6,1035.5" fill="#1b2233" stroke="#2c3550" stroke-width="1"/>
<polygon points="168.8,763.7 177.2,797.5 218.5,791.3 260.2,784.4 252.3,743.0" fill="#1b2233" stroke="#2c3550" stroke-width="1"/>
<polygon points="-216.9,1056.8 -206.0,1108.7 -178.7,1105.0 -106.2,1084.3 -113.2,1067.4 -124.7,1072.4 -133.0,1051.8 -181.3,1063.0 -184.0,1050.5" fill="#1b2233" stroke="#2c3550" stroke-width="1"/>
<polygon points="-259.6,-291.4 -249.0,-266.3 -239.8,-270.1 -245.1,-286.4 -249.4,-287.6 -252.1,-293.9" fill="#1b2233" stroke="#2c3550" stroke-width="1"/>
<polygon points="73.9,259.6 19.4,282.2 41.8,333.5 103.4,309.7 99.8,302.2 93.2,302.2 75.2,264.7 76.1,264.0" fill="#1b2233" stroke="#2c3550" stroke-width="1"/>
<polygon points="849.4,361.1 809.8,387.4 823.9,409.9 850.2,393.0 850.7,395.5 855.1,392.4 854.6,390.5 858.2,388.0" fill="#1b2233" stroke="#2c3550" stroke-width="1"/>
<polygon points="908.7,633.5 899.9,639.7 851.6,669.8 885.4,723.6 888.9,721.1 941.6,687.9" fill="#1b2233" stroke="#2c3550" stroke-width="1"/>
<polygon points="-279.8,-174.9 -230.6,-185.6 -218.3,-188.1 -246.4,-258.8 -249.0,-266.3 -259.6,-291.4 -266.6,-308.9 -280.2,-343.4 -335.6,-321.4 -307.9,-250.1" fill="#1b2233" stroke="#2c3550" stroke-width="1"/>
<polygon points="-63.2,-308.3 -28.9,-322.1 -41.2,-340.9 -57.0,-369.0 -90.4,-355.9 -73.7,-327.1" fill="#1b2233" stroke="#2c3550" stroke-width="1"/>
<polygon points="976.8,743.0 924.1,778.7 954.4,823.2 949.1,827.0 953.9,833.8 976.8,818.8 1011.1,795.6 991.3,765.6" fill="#1b2233" stroke="#2c3550" stroke-width="1"/>
<polygon points="-111.5,-303.9 -127.7,-294.5 -122.0,-286.4 -168.2,-274.5 -169.5,-280.7 -179.2,-278.9 -177.0,-272.0 -184.4,-270.7 -156.7,-201.2 -140.5,-204.3 -74.1,-218.1 -68.9,-231.9" fill="#1b2233" stroke="#2c3550" stroke-width="1"/>
<polygon points="598.9,525.8 567.3,543.9 595.9,591.5 626.6,571.5" fill="#1b2233" stroke="#2c3550" stroke-width="1"/>
<polygon points="-89.5,1126.3 -78.5,1153.2 -72.4,1169.5 -10.9,1146.9 -27.1,1104.3" fill="#1b2233" stroke="#2c3550" stroke-width="1"/>
<polygon points="389.8,1167.0 416.2,1251.5 451.8,1241.5 445.6,1219.6 503.6,1202.7 511.1,1225.8 550.2,1214.6 533.5,1156.3 551.5,1150.7 545.8,1133.2 527.3,1138.8 504.0,1059.9 504.9,1059.9 494.4,1026.7 457.0,1038.0 459.7,1048.6 400.8,1065.5 398.2,1054.3 361.7,1064.9 359.1,1066.2 359.5,1068.7 366.5,1090.6 369.2,1100.0 370.0,1099.3" fill="#1b2233" stroke="#2c3550" stroke-width="1"/>
<polygon points="-191.5,-136.1 -245.1,-124.8 -255.2,-122.3 -239.3,-42.2 -232.8,-44.0 -233.6,-49.7 -176.5,-62.2" fill="#1b2233" stroke="#2c3550" stroke-width="1"/>
<polygon points="-103.6,177.6 -139.2,192.0 -93.0,284.1 -55.3,268.4 -86.0,210.2" fill="#1b2233" stroke="#2c3550" stroke-width="1"/>
<polygon points="-336.4,1170.1 -333.4,1178.9 -309.6,1172.6 -250.3,1156.3 -234.9,1152.6 -242.9,1113.7 -306.1,1130.6 -303.5,1140.7 -329.4,1148.8 -324.6,1167.0" fill="#1b2233" stroke="#2c3550" stroke-width="1"/>
<polygon points="757.1,719.3 766.8,712.4 772.5,721.1 779.5,716.7 735.6,644.7 718.4,655.4 722.8,661.6" fill="#1b2233" stroke="#2c3550" stroke-width="1"/>
<polygon points="89.7,430.6 109.5,499.5 123.1,495.1 113.0,466.9 144.7,453.8 171.5,498.8 155.2,508.2 160.9,521.4 178.9,513.9 247.9,485.1 225.5,446.9 197.8,399.3 99.0,428.1" fill="#1b2233" stroke="#2c3550" stroke-width="1"/>
<polygon points="1229.4,264.7 1293.1,245.2 1287.0,224.0 1292.7,222.1 1287.4,205.8 1282.1,207.0 1275.5,184.5 1211.8,203.3" fill="#1b2233" stroke="#2c3550" stroke-width="1"/>
<polygon points="1230.3,944.0 1236.0,951.6 1232.9,954.7 1236.0,958.5 1229.4,963.5 1241.3,979.7 1236.9,983.5 1241.3,991.6 1248.7,998.5 1254.9,994.8 1268.1,1009.8 1275.5,1002.9 1278.2,1006.0 1280.4,1002.9 1288.3,1010.4 1405.6,907.7 1348.9,841.4" fill="#1b2233" stroke="#2c3550" stroke-width="1"/>
<polygon points="226.8,630.3 230.3,639.1 233.8,647.2 263.3,634.7 255.8,618.4 249.2,620.9" fill="#1b2233" stroke="#2c3550" stroke-width="1"/>
<polygon points="1076.1,1075.5 1108.6,1122.5 1122.2,1143.8 1166.1,1208.3 1218.4,1172.6 1243.5,1156.3 1208.8,1104.3 1199.1,1090.6 1178.0,1104.3 1163.9,1084.9 1185.9,1069.9 1160.4,1032.3 1154.7,1029.2" fill="#1b2233" stroke="#2c3550" stroke-width="1"/>
<polygon points="236.5,660.4 236.5,662.9 239.6,677.9 247.5,675.4 265.0,667.9 263.7,661.6 258.0,658.5 254.5,654.1" fill="#1b2233" stroke="#2c3550" stroke-width="1"/>
<polygon points="-173.9,117.5 -139.2,192.0 -103.6,177.6 -115.9,153.8 -136.5,103.1 -163.3,113.7" fill="#1b2233" stroke="#2c3550" stroke-width="1"/>
<polygon points="921.4,53.0 934.2,90.0 945.6,85.6 951.7,104.4 998.3,90.0 980.3,35.5" fill="#1b2233" stroke="#2c3550" stroke-width="1"/>
<polygon points="-326.3,816.3 -308.8,877.7 -274.1,872.7 -239.3,867.0 -251.2,812.6 -257.4,784.4 -259.6,774.4 -270.1,726.1 -306.1,736.8 -315.8,739.9 -310.5,772.5 -274.9,766.2 -266.6,805.0" fill="#1b2233" stroke="#2c3550" stroke-width="1"/>
<polygon points="-158.5,200.2 -224.0,227.1 -234.1,231.5 -307.4,261.5 -288.5,308.5 -270.1,354.8 -124.2,296.6 -139.2,257.8 -246.8,301.6 -254.3,283.4 -143.6,238.4" fill="#1b2233" stroke="#2c3550" stroke-width="1"/>
<polygon points="-150.2,1197.0 -148.8,1203.3 -136.5,1201.4 -128.2,1198.9 -130.4,1190.8 -134.8,1191.4" fill="#1b2233" stroke="#2c3550" stroke-width="1"/>
<polygon points="1113.4,672.3 1142.0,716.7 1323.9,595.3 1330.9,590.3 1357.7,572.1 1328.7,527.6" fill="#1b2233" stroke="#2c3550" stroke-width="1"/>
<polygon points="1046.6,120.6 1062.9,171.4 1098.5,160.1 1093.2,143.8 1073.4,150.7 1064.7,125.0 1059.8,116.3" fill="#1b2233" stroke="#2c3550" stroke-width="1"/>
<polygon points="4.9,829.5 -7.4,788.1 -87.8,809.4 -75.5,842.0" fill="#1b2233" stroke="#2c3550" stroke-width="1"/>
<polygon points="-99.2,11.1 -157.6,26.7 -148.4,74.9 -109.3,50.5 -94.4,41.1" fill="#1b2233" stroke="#2c3550" stroke-width="1"/>
<polygon points="-242.0,1189.5 -192.8,1177.0 -199.4,1145.1 -199.4,1143.2 -234.9,1152.6 -250.3,1156.3" fill="#1b2233" stroke="#2c3550" stroke-width="1"/>
<polygon points="-57.5,885.2 -27.6,963.5 -22.7,962.2 40.5,947.2 34.4,928.4 24.7,895.8 17.7,873.3 -10.4,877.7" fill="#1b2233" stroke="#2c3550" stroke-width="1"/>
<polygon points="714.9,200.2 733.4,189.5 726.4,170.1 714.1,173.9 708.8,184.5" fill="#1b2233" stroke="#2c3550" stroke-width="1"/>
<polygon points="239.6,677.9 249.7,729.3 275.6,723.0 247.5,675.4" fill="#1b2233" stroke="#2c3550" stroke-width="1"/>
<polygon points="-295.1,971.0 -283.7,1012.9 -269.2,1011.1 -262.6,1009.8 -264.8,1002.3 -274.5,967.8" fill="#1b2233" stroke="#2c3550" stroke-width="1"/>
<polygon points="-130.8,-148.6 -115.4,-74.7 -71.9,-84.8 0.1,-100.4 -24.9,-144.2 -39.0,-168.0 -99.2,-155.5" fill="#1b2233" stroke="#2c3550" stroke-width="1"/>
<polygon points="260.2,784.4 291.8,779.4 286.1,753.1 280.4,729.3 286.6,728.0 284.4,721.1 275.6,723.0 249.7,729.3 252.3,743.0" fill="#1b2233" stroke="#2c3550" stroke-width="1"/>
<polygon points="-202.4,947.8 -199.8,962.8 -184.0,961.0 -174.8,962.2 -169.9,967.8 -154.5,966.0 -158.5,948.4 -160.7,941.5" fill="#1b2233" stroke="#2c3550" stroke-width="1"/>
<polygon points="83.1,260.3 76.1,264.0 75.2,264.7 93.2,302.2 98.5,300.3 99.8,296.6" fill="#1b2233" stroke="#2c3550" stroke-width="1"/>
<polygon points="849.8,541.4 845.9,543.9 834.0,524.5 818.6,534.5 845.0,574.6 852.9,569.0 862.1,562.7" fill="#1b2233" stroke="#2c3550" stroke-width="1"/>
<polygon points="-242.4,913.4 -234.9,952.8 -206.4,948.4 -214.3,909.0 -221.3,910.2" fill="#1b2233" stroke="#2c3550" stroke-width="1"/>
<polygon points="-255.2,-122.3 -285.5,-116.1 -320.2,-109.2 -283.7,59.9 -274.9,56.1 -229.2,36.1 -224.0,34.8 -231.9,-7.1 -271.9,4.2 -276.7,1.0 -287.2,-38.4 -256.0,-45.3 -249.0,-25.3 -247.7,-25.9 -241.1,-14.6 -234.1,-16.5 -236.7,-29.0 -239.3,-42.2" fill="#1b2233" stroke="#2c3550" stroke-width="1"/>
<polygon points="818.6,534.5 777.3,561.5 770.3,550.8 763.7,554.6 762.8,553.3 748.3,562.7 746.1,559.6 738.2,564.6 740.4,567.7 725.0,578.4 758.9,630.3 824.3,587.1 845.0,574.6" fill="#1b2233" stroke="#2c3550" stroke-width="1"/>
<polygon points="832.2,758.1 826.5,761.8 787.0,787.5 832.2,808.2 848.5,782.5" fill="#1b2233" stroke="#2c3550" stroke-width="1"/>
<polygon points="-80.7,480.1 -60.1,552.1 21.2,527.6 1.4,456.3 -42.1,468.8" fill="#1b2233" stroke="#2c3550" stroke-width="1"/>
<polygon points="-72.4,1169.5 -46.9,1233.3 15.0,1210.2 -7.4,1155.1 -10.9,1146.9" fill="#1b2233" stroke="#2c3550" stroke-width="1"/>
<polygon points="459.7,1048.6 457.0,1038.0 453.5,1026.1 431.5,1032.3 428.0,1022.3 413.1,1026.1 415.7,1036.7 394.6,1043.0 398.2,1054.3 400.8,1065.5" fill="#1b2233" stroke="#2c3550" stroke-width="1"/>
<polygon points="-201.6,-313.9 -228.4,-303.3 -216.1,-271.4 -246.4,-258.8 -218.3,-188.1 -198.0,-192.5 -184.0,-195.6 -156.7,-201.2 -184.4,-270.7 -198.0,-303.9" fill="#1b2233" stroke="#2c3550" stroke-width="1"/>
<polygon points="-75.9,128.8 -115.9,153.8 -103.6,177.6 -86.0,210.2 -46.5,186.4" fill="#1b2233" stroke="#2c3550" stroke-width="1"/>
<polygon points="-312.3,713.0 -306.1,736.8 -270.1,726.1 -272.7,712.4 -258.2,708.0 -196.7,688.6 -229.7,666.0 -234.5,662.9 -286.8,679.8 -277.6,703.6" fill="#1b2233" stroke="#2c3550" stroke-width="1"/>
<polygon points="-40.8,318.5 -100.5,335.4 -79.4,410.6 -74.1,408.7 -20.1,392.4" fill="#1b2233" stroke="#2c3550" stroke-width="1"/>
<polygon points="-235.4,765.6 -225.3,792.5 -218.7,808.8 -180.5,804.4 -149.7,798.2 -171.7,742.4" fill="#1b2233" stroke="#2c3550" stroke-width="1"/>
<polygon points="-307.9,-250.1 -312.3,-248.8 -369.0,-227.5 -341.7,-161.8 -304.4,-169.9 -279.8,-174.9" fill="#1b2233" stroke="#2c3550" stroke-width="1"/>
<polygon points="156.5,523.3 162.2,537.7 184.6,528.9 178.9,513.9 160.9,521.4" fill="#1b2233" stroke="#2c3550" stroke-width="1"/>
<polygon points="1215.3,451.3 1220.2,465.7 1238.6,518.9 1284.8,487.6 1302.8,475.0 1287.0,425.6 1283.4,416.2 1243.9,429.3 1247.0,440.0" fill="#1b2233" stroke="#2c3550" stroke-width="1"/>
<polygon points="796.6,865.2 766.8,883.3 804.1,946.6 828.3,987.3 837.1,981.0 900.3,942.8 926.7,925.3" fill="#1b2233" stroke="#2c3550" stroke-width="1"/>
<polygon points="40.1,599.0 50.2,636.6 71.7,632.2 133.2,617.8 141.1,615.9 131.9,579.6 108.6,584.6" fill="#1b2233" stroke="#2c3550" stroke-width="1"/>
<polygon points="828.3,987.3 918.3,1138.2 930.7,1158.2 998.3,1116.9 1002.7,1114.4 991.3,1094.3 1003.1,1087.4 993.0,1071.2 980.7,1077.4 932.4,996.0 944.3,989.1 935.0,973.5 923.6,980.4 900.3,942.8 837.1,981.0" fill="#1b2233" stroke="#2c3550" stroke-width="1"/>
<polygon points="265.0,667.9 266.4,667.3 338.4,639.1 327.9,620.9 312.5,594.6 282.2,607.2 255.8,618.4 263.3,634.7 270.7,659.1 263.7,661.6" fill="#1b2233" stroke="#2c3550" stroke-width="1"/>
<polygon points="233.4,1071.8 231.6,1065.5 220.7,1068.7 231.6,1105.0 271.2,1093.7 262.4,1063.0" fill="#1b2233" stroke="#2c3550" stroke-width="1"/>
<polygon points="924.5,92.5 930.2,110.0 951.7,104.4 945.6,85.6 934.2,90.0" fill="#1b2233" stroke="#2c3550" stroke-width="1"/>
<polygon points="-165.5,855.8 -147.1,853.3 -128.2,850.8 -140.9,818.8 -148.4,800.0 -149.7,798.2 -180.5,804.4" fill="#1b2233" stroke="#2c3550" stroke-width="1"/>
<polygon points="-158.5,66.2 -155.0,77.4 -176.5,83.7 -163.3,113.7 -136.5,103.1 -148.4,74.9 -157.6,26.7 -159.8,19.8 -224.0,34.8 -229.2,36.1 -274.9,56.1 -259.1,97.5" fill="#1b2233" stroke="#2c3550" stroke-width="1"/>
<polygon points="-137.4,1178.9 -137.0,1183.2 -137.4,1183.2 -134.8,1191.4 -130.4,1190.8 -72.4,1169.5 -78.5,1153.2 -96.1,1159.5 -92.6,1168.2 -103.6,1172.0 -109.3,1168.8" fill="#1b2233" stroke="#2c3550" stroke-width="1"/>
<polygon points="1054.1,73.0 1055.9,81.8 1069.0,121.3 1101.6,111.9 1086.6,63.7" fill="#1b2233" stroke="#2c3550" stroke-width="1"/>
<polygon points="54.6,999.2 50.2,984.1 47.1,974.1 -17.5,991.0 -7.8,1015.4" fill="#1b2233" stroke="#2c3550" stroke-width="1"/>
<polygon points="-24.5,748.7 12.8,778.7 59.9,815.7 61.2,815.7 40.5,732.4" fill="#1b2233" stroke="#2c3550" stroke-width="1"/>
<polygon points="-132.6,-47.2 -121.2,2.3 -101.8,-1.5 -111.1,-52.2" fill="#1b2233" stroke="#2c3550" stroke-width="1"/>
<polygon points="266.4,667.3 277.8,686.7 274.3,689.2 276.9,694.2 281.3,691.1 285.2,698.0 280.4,701.1 291.4,719.3 296.7,718.0 372.7,697.3 360.4,676.7 338.4,639.1" fill="#1b2233" stroke="#2c3550" stroke-width="1"/>
<polygon points="-269.2,1011.1 -266.6,1024.8 -260.9,1054.9 -254.3,1053.6 -219.6,1044.2 -226.6,1004.8 -262.6,1009.8" fill="#1b2233" stroke="#2c3550" stroke-width="1"/>
<polygon points="21.2,1092.5 36.6,1133.8 40.5,1143.8 86.2,1128.1 82.7,1106.2 78.3,1076.8" fill="#1b2233" stroke="#2c3550" stroke-width="1"/>
<polygon points="286.1,753.1 291.8,779.4 304.1,777.5 309.4,776.9 303.3,749.9" fill="#1b2233" stroke="#2c3550" stroke-width="1"/>
<polygon points="-199.4,1145.1 -192.8,1177.0 -187.1,1210.2 -150.2,1197.0 -161.1,1138.2" fill="#1b2233" stroke="#2c3550" stroke-width="1"/>
<polygon points="146.0,146.9 118.3,99.3 113.0,90.6 21.2,145.7 -35.0,179.5 -46.5,186.4 -86.0,210.2 -55.3,268.4" fill="#1b2233" stroke="#2c3550" stroke-width="1"/>
<polygon points="869.6,639.1 843.2,656.0 851.6,669.8 899.9,639.7 893.7,626.6 882.8,634.1 870.9,641.0" fill="#1b2233" stroke="#2c3550" stroke-width="1"/>
<polygon points="-234.9,952.8 -233.6,961.6 -227.5,998.5 -194.5,992.9 -199.8,962.8 -202.4,947.8 -206.4,948.4" fill="#1b2233" stroke="#2c3550" stroke-width="1"/>
<polygon points="824.3,587.1 758.9,630.3 751.4,634.7 769.0,662.3 841.9,614.7" fill="#1b2233" stroke="#2c3550" stroke-width="1"/>
<polygon points="792.7,708.6 779.5,716.7 772.5,721.1 700.0,766.8 700.9,768.7 741.7,777.5 775.1,755.6 808.1,733.7" fill="#1b2233" stroke="#2c3550" stroke-width="1"/>
<polygon points="-169.5,-50.9 -173.4,-50.3 -170.8,-38.4 -170.4,-32.2 -166.4,-12.1 -161.1,11.7 -142.2,7.3 -152.4,-41.5 -166.8,-39.0" fill="#1b2233" stroke="#2c3550" stroke-width="1"/>
<polygon points="-28.9,-322.1 -63.2,-308.3 -62.3,-307.0 -41.2,-270.7 -25.4,-244.4 29.1,-278.9 10.6,-318.9 7.1,-325.8 3.6,-333.3 2.7,-334.6" fill="#1b2233" stroke="#2c3550" stroke-width="1"/>
<polygon points="-187.1,1210.2 -183.5,1227.7 -177.8,1260.3 -173.9,1279.7 -137.4,1267.8 -133.9,1265.9 -148.8,1203.3 -150.2,1197.0" fill="#1b2233" stroke="#2c3550" stroke-width="1"/>
<polygon points="-213.4,-45.9 -226.6,-42.2 -224.4,-32.2 -236.7,-29.0 -234.1,-16.5 -231.9,-7.1 -224.0,34.8 -159.8,19.8 -161.1,11.7 -166.4,-12.1 -204.6,-4.0" fill="#1b2233" stroke="#2c3550" stroke-width="1"/>
<polygon points="120.0,538.3 131.9,579.6 141.1,615.9 186.8,597.2 181.6,583.4 182.0,582.7 176.7,569.6 162.7,574.6 148.6,526.4" fill="#1b2233" stroke="#2c3550" stroke-width="1"/>
<polygon points="-106.2,1084.3 -89.5,1126.3 -27.1,1104.3 -30.2,1097.5 -43.8,1062.4" fill="#1b2233" stroke="#2c3550" stroke-width="1"/>
<polygon points="146.0,146.9 -55.3,268.4 -46.9,297.2 -43.0,311.0 -40.8,318.5 -20.1,392.4 37.0,376.1 124.4,351.1 114.8,319.1 103.4,309.7 41.8,333.5 6.7,345.4 -18.3,262.8 -10.4,259.0 -8.2,263.4 1.9,256.5 8.5,259.6 72.6,220.8 73.5,213.9 67.8,203.3 77.0,197.0 106.4,245.9 179.4,203.9 153.0,159.5" fill="#1b2233" stroke="#2c3550" stroke-width="1"/>
<polygon points="930.7,1158.2 962.3,1205.8 994.8,1254.6 1065.1,1359.2 1092.8,1401.2 1150.3,1359.8 1156.0,1355.4 998.3,1116.9" fill="#1b2233" stroke="#2c3550" stroke-width="1"/>
<polygon points="558.5,387.4 522.9,326.0 461.4,361.7 515.0,454.4 567.3,543.9 598.9,525.8 628.8,508.2" fill="#1b2233" stroke="#2c3550" stroke-width="1"/>
<polygon points="-141.4,655.4 -104.5,684.8 -31.5,656.6 -31.5,655.4 -42.5,617.2" fill="#1b2233" stroke="#2c3550" stroke-width="1"/>
<polygon points="1166.6,482.6 1189.9,552.1 1225.0,528.3 1238.6,518.9 1220.2,465.7" fill="#1b2233" stroke="#2c3550" stroke-width="1"/>
<polygon points="609.9,614.7 627.9,645.4 658.7,627.2 640.2,596.5" fill="#1b2233" stroke="#2c3550" stroke-width="1"/>
<polygon points="1049.3,1089.9 1082.2,1140.0 1108.6,1122.5 1076.1,1075.5 1074.8,1075.5" fill="#1b2233" stroke="#2c3550" stroke-width="1"/>
<polygon points="133.2,617.8 140.7,651.6 142.5,660.4 230.3,639.1 226.8,630.3 219.8,611.6 210.1,587.1 186.8,597.2 141.1,615.9" fill="#1b2233" stroke="#2c3550" stroke-width="1"/>
<polygon points="939.9,456.3 954.8,502.0 957.5,511.4 997.4,498.2 992.2,480.7 979.0,443.1 961.0,449.4" fill="#1b2233" stroke="#2c3550" stroke-width="1"/>
<polygon points="-230.1,453.1 -221.8,451.3 -160.3,433.7 -175.6,383.6 -208.6,393.0 -214.7,374.9 -122.0,336.7 -104.5,314.1 -46.9,297.2 -55.3,268.4 -93.0,284.1 -124.2,296.6 -270.1,354.8 -253.4,396.1" fill="#1b2233" stroke="#2c3550" stroke-width="1"/>
<polygon points="-120.7,1048.0 -126.0,1050.5 -133.0,1051.8 -124.7,1072.4 -113.2,1067.4" fill="#1b2233" stroke="#2c3550" stroke-width="1"/>
<polygon points="882.8,634.1 893.7,626.6 880.6,599.7 867.8,605.9" fill="#1b2233" stroke="#2c3550" stroke-width="1"/>
<polygon points="249.2,620.9 255.8,618.4 282.2,607.2 264.6,564.6 210.1,587.1 219.8,611.6 241.7,602.2" fill="#1b2233" stroke="#2c3550" stroke-width="1"/>
<polygon points="-330.7,1217.7 -300.0,1205.8 -309.6,1172.6 -333.4,1178.9 -340.8,1181.4" fill="#1b2233" stroke="#2c3550" stroke-width="1"/>
<polygon points="1062.9,171.4 1086.2,240.2 1104.6,234.6 1121.8,229.6 1105.5,180.1 1115.6,177.0 1108.6,156.3 1098.5,160.1" fill="#1b2233" stroke="#2c3550" stroke-width="1"/>
<polygon points="61.2,815.7 88.9,811.3 116.1,806.9 71.7,632.2 50.2,636.6 19.0,643.5 40.5,732.4" fill="#1b2233" stroke="#2c3550" stroke-width="1"/>
<polygon points="-46.9,1233.3 -30.2,1276.5 31.3,1252.8 28.2,1245.2 15.0,1210.2" fill="#1b2233" stroke="#2c3550" stroke-width="1"/>
<polygon points="522.9,326.0 558.5,387.4 717.1,292.2 680.7,229.6" fill="#1b2233" stroke="#2c3550" stroke-width="1"/>
<polygon points="342.4,224.6 359.1,203.9 345.4,192.6 328.7,213.3" fill="#1b2233" stroke="#2c3550" stroke-width="1"/>
<polygon points="801.0,1048.6 797.1,1051.1 793.1,1053.0 803.7,1071.8 811.6,1067.4" fill="#1b2233" stroke="#2c3550" stroke-width="1"/>
<line x1="318.6" y1="373.0" x2="256.2" y2="268.4" stroke="#31342e" stroke-width="28.1"/>
<line x1="997.0" y1="713.6" x2="728.1" y2="-90.4" stroke="#31342e" stroke-width="28.1"/>
<line x1="728.1" y1="-90.4" x2="704.4" y2="-159.3" stroke="#31342e" stroke-width="28.1"/>
<line x1="1131.4" y1="-42.2" x2="1087.5" y2="-65.3" stroke="#31342e" stroke-width="28.1"/>
<line x1="1087.5" y1="-65.3" x2="886.7" y2="-319.6" stroke="#31342e" stroke-width="28.1"/>
<line x1="1042.2" y1="682.3" x2="997.0" y2="713.6" stroke="#31342e" stroke-width="28.1"/>
<line x1="550.6" y1="770.0" x2="630.1" y2="787.5" stroke="#31342e" stroke-width="39.4"/>
<line x1="318.6" y1="373.0" x2="312.5" y2="487.6" stroke="#31342e" stroke-width="28.1"/>
<line x1="312.5" y1="487.6" x2="330.9" y2="553.3" stroke="#31342e" stroke-width="28.1"/>
<line x1="330.9" y1="553.3" x2="356.4" y2="614.7" stroke="#31342e" stroke-width="28.1"/>
<line x1="356.4" y1="614.7" x2="401.2" y2="696.1" stroke="#31342e" stroke-width="28.1"/>
<line x1="401.2" y1="696.1" x2="443.4" y2="781.2" stroke="#31342e" stroke-width="28.1"/>
<line x1="4.1" y1="-228.1" x2="-26.7" y2="-208.1" stroke="#31342e" stroke-width="28.1"/>
<line x1="-26.7" y1="-208.1" x2="-61.0" y2="-193.7" stroke="#31342e" stroke-width="28.1"/>
<line x1="411.3" y1="277.8" x2="367.4" y2="321.6" stroke="#31342e" stroke-width="45.0"/>
<line x1="367.4" y1="321.6" x2="318.6" y2="373.0" stroke="#31342e" stroke-width="45.0"/>
<line x1="443.4" y1="781.2" x2="518.1" y2="768.7" stroke="#31342e" stroke-width="28.1"/>
<line x1="518.1" y1="768.7" x2="550.6" y2="770.0" stroke="#31342e" stroke-width="28.1"/>
<line x1="318.6" y1="373.0" x2="237.8" y2="348.6" stroke="#31342e" stroke-width="28.1"/>
<line x1="237.8" y1="348.6" x2="-238.9" y2="483.8" stroke="#31342e" stroke-width="28.1"/>
<line x1="-41.6" y1="991.6" x2="-78.1" y2="900.8" stroke="#31342e" stroke-width="28.1"/>
<line x1="-78.1" y1="900.8" x2="-90.8" y2="868.3" stroke="#31342e" stroke-width="28.1"/>
<line x1="-90.8" y1="868.3" x2="-101.8" y2="840.7" stroke="#31342e" stroke-width="28.1"/>
<line x1="-101.8" y1="840.7" x2="-166.0" y2="666.7" stroke="#31342e" stroke-width="28.1"/>
<line x1="-166.0" y1="666.7" x2="-203.3" y2="573.4" stroke="#31342e" stroke-width="28.1"/>
<line x1="-203.3" y1="573.4" x2="-238.9" y2="483.8" stroke="#31342e" stroke-width="28.1"/>
<line x1="630.1" y1="787.5" x2="428.9" y2="431.8" stroke="#31342e" stroke-width="45.0"/>
<line x1="428.9" y1="431.8" x2="419.2" y2="388.6" stroke="#31342e" stroke-width="45.0"/>
<line x1="419.2" y1="388.6" x2="411.3" y2="277.8" stroke="#31342e" stroke-width="45.0"/>
<line x1="411.3" y1="277.8" x2="539.2" y2="55.5" stroke="#31342e" stroke-width="45.0"/>
<line x1="539.2" y1="55.5" x2="562.9" y2="-32.8" stroke="#31342e" stroke-width="45.0"/>
<line x1="562.9" y1="-32.8" x2="566.4" y2="-97.3" stroke="#31342e" stroke-width="45.0"/>
<line x1="566.4" y1="-97.3" x2="529.1" y2="-288.9" stroke="#31342e" stroke-width="45.0"/>
<line x1="256.2" y1="268.4" x2="13.3" y2="-140.5" stroke="#31342e" stroke-width="28.1"/>
<line x1="-26.7" y1="-208.1" x2="-43.4" y2="-236.3" stroke="#31342e" stroke-width="28.1"/>
<line x1="550.6" y1="770.0" x2="318.6" y2="373.0" stroke="#31342e" stroke-width="45.0"/>
<line x1="630.1" y1="787.5" x2="693.4" y2="801.3" stroke="#31342e" stroke-width="39.4"/>
<line x1="693.4" y1="801.3" x2="772.5" y2="820.1" stroke="#31342e" stroke-width="39.4"/>
<line x1="772.5" y1="820.1" x2="1032.6" y2="939.0" stroke="#31342e" stroke-width="39.4"/>
<line x1="1032.6" y1="939.0" x2="1080.5" y2="960.3" stroke="#31342e" stroke-width="39.4"/>
<line x1="1080.5" y1="960.3" x2="1155.2" y2="981.0" stroke="#31342e" stroke-width="39.4"/>
<line x1="784.3" y1="1170.7" x2="682.0" y2="995.4" stroke="#31342e" stroke-width="45.0"/>
<line x1="-132.6" y1="875.2" x2="-90.8" y2="868.3" stroke="#31342e" stroke-width="28.1"/>
<line x1="-90.8" y1="868.3" x2="-52.6" y2="862.0" stroke="#31342e" stroke-width="28.1"/>
<line x1="-52.6" y1="862.0" x2="38.3" y2="845.7" stroke="#31342e" stroke-width="28.1"/>
<line x1="38.3" y1="845.7" x2="409.1" y2="786.9" stroke="#31342e" stroke-width="28.1"/>
<line x1="409.1" y1="786.9" x2="443.4" y2="781.2" stroke="#31342e" stroke-width="28.1"/>
<line x1="763.7" y1="1119.4" x2="675.8" y2="900.8" stroke="#31342e" stroke-width="45.0"/>
<line x1="675.8" y1="900.8" x2="630.1" y2="787.5" stroke="#31342e" stroke-width="45.0"/>
<line x1="1124.4" y1="923.4" x2="1088.4" y2="864.5" stroke="#31342e" stroke-width="28.1"/>
<line x1="1088.4" y1="864.5" x2="1045.8" y2="795.6" stroke="#31342e" stroke-width="28.1"/>
<line x1="1045.8" y1="795.6" x2="1025.1" y2="761.8" stroke="#31342e" stroke-width="28.1"/>
<line x1="1025.1" y1="761.8" x2="997.0" y2="713.6" stroke="#31342e" stroke-width="28.1"/>
<line x1="13.3" y1="-140.5" x2="-26.7" y2="-208.1" stroke="#31342e" stroke-width="28.1"/>
<line x1="863.0" y1="-190.6" x2="986.4" y2="-67.2" stroke="#31342e" stroke-width="28.1"/>
<line x1="986.4" y1="-67.2" x2="1129.2" y2="46.1" stroke="#31342e" stroke-width="28.1"/>
<line x1="682.0" y1="995.4" x2="640.2" y2="924.0" stroke="#31342e" stroke-width="45.0"/>
<line x1="640.2" y1="924.0" x2="550.6" y2="770.0" stroke="#31342e" stroke-width="45.0"/>
<polygon points="294.3,359.7 244.2,275.6 235.5,280.8 285.6,364.8" fill="#5c6058" stroke="#9aa094" stroke-width="0.7"/>
<polygon points="318.5,345.2 268.3,261.2 277.0,256.0 327.2,340.1" fill="#5c6058" stroke="#9aa094" stroke-width="0.7"/>
<polygon points="978.7,703.4 714.8,-85.9 705.2,-82.6 969.1,706.6" fill="#5c6058" stroke="#9aa094" stroke-width="0.7"/>
<polygon points="714.8,-85.9 691.1,-154.7 681.5,-151.5 705.2,-82.6" fill="#5c6058" stroke="#9aa094" stroke-width="0.7"/>
<polygon points="1005.4,694.5 741.4,-94.9 751.0,-98.2 1015.0,691.3" fill="#5c6058" stroke="#9aa094" stroke-width="0.7"/>
<polygon points="741.4,-94.9 717.7,-163.8 727.3,-167.0 751.0,-98.2" fill="#5c6058" stroke="#9aa094" stroke-width="0.7"/>
<polygon points="331.4,397.6 326.6,486.0 336.8,484.9 341.5,398.1" fill="#5c6058" stroke="#9aa094" stroke-width="0.7"/>
<polygon points="326.6,486.0 344.2,548.7 353.8,545.4 336.8,484.9" fill="#5c6058" stroke="#9aa094" stroke-width="0.7"/>
<polygon points="344.2,548.7 369.1,608.6 378.2,604.2 353.8,545.4" fill="#5c6058" stroke="#9aa094" stroke-width="0.7"/>
<polygon points="369.1,608.6 413.7,689.6 422.7,684.9 378.2,604.2" fill="#5c6058" stroke="#9aa094" stroke-width="0.7"/>
<polygon points="413.7,689.6 449.1,761.1 458.2,756.6 422.7,684.9" fill="#5c6058" stroke="#9aa094" stroke-width="0.7"/>
<polygon points="303.3,396.1 298.3,489.1 288.1,490.3 293.2,395.6" fill="#5c6058" stroke="#9aa094" stroke-width="0.7"/>
<polygon points="298.3,489.1 317.6,557.9 308.0,561.3 288.1,490.3" fill="#5c6058" stroke="#9aa094" stroke-width="0.7"/>
<polygon points="317.6,557.9 343.7,620.8 334.6,625.2 308.0,561.3" fill="#5c6058" stroke="#9aa094" stroke-width="0.7"/>
<polygon points="343.7,620.8 388.8,702.6 382.2,706.0 334.6,625.2" fill="#5c6058" stroke="#9aa094" stroke-width="0.7"/>
<polygon points="388.8,702.6 423.9,773.6 417.3,776.9 382.2,706.0" fill="#5c6058" stroke="#9aa094" stroke-width="0.7"/>
<polygon points="383.7,337.1 351.4,371.1 362.0,381.2 394.3,347.2" fill="#5c6058" stroke="#9aa094" stroke-width="0.7"/>
<polygon points="378.5,278.8 351.3,305.9 340.8,295.7 368.2,268.4" fill="#5c6058" stroke="#9aa094" stroke-width="0.7"/>
<polygon points="351.3,305.9 318.8,340.2 308.2,330.1 340.8,295.7" fill="#5c6058" stroke="#9aa094" stroke-width="0.7"/>
<polygon points="456.3,764.8 515.8,754.9 514.1,744.9 454.7,754.8" fill="#5c6058" stroke="#9aa094" stroke-width="0.7"/>
<polygon points="291.7,379.5 237.7,363.2 237.6,373.8 288.8,389.2" fill="#5c6058" stroke="#9aa094" stroke-width="0.7"/>
<polygon points="237.7,363.2 -220.2,493.1 -217.4,502.9 237.6,373.8" fill="#5c6058" stroke="#9aa094" stroke-width="0.7"/>
<polygon points="299.8,352.6 237.9,333.9 238.0,323.4 302.7,342.9" fill="#5c6058" stroke="#9aa094" stroke-width="0.7"/>
<polygon points="237.9,333.9 -227.9,466.1 -230.6,456.3 238.0,323.4" fill="#5c6058" stroke="#9aa094" stroke-width="0.7"/>
<polygon points="-54.7,996.9 -91.2,906.0 -95.8,907.9 -59.3,998.7" fill="#5c6058" stroke="#9aa094" stroke-width="0.7"/>
<polygon points="-91.2,906.0 -98.3,887.8 -103.0,889.6 -95.8,907.9" fill="#5c6058" stroke="#9aa094" stroke-width="0.7"/>
<polygon points="-109.6,859.1 -115.0,845.8 -124.4,849.4 -116.8,862.0" fill="#5c6058" stroke="#9aa094" stroke-width="0.7"/>
<polygon points="-28.6,986.4 -65.0,895.7 -57.5,892.7 -25.8,985.3" fill="#5c6058" stroke="#9aa094" stroke-width="0.7"/>
<polygon points="-65.0,895.7 -72.1,877.6 -64.0,874.4 -57.5,892.7" fill="#5c6058" stroke="#9aa094" stroke-width="0.7"/>
<polygon points="-83.5,848.7 -88.7,835.7 -81.2,832.8 -75.5,845.5" fill="#5c6058" stroke="#9aa094" stroke-width="0.7"/>
<polygon points="-88.7,835.7 -152.8,661.6 -147.9,659.7 -81.2,832.8" fill="#5c6058" stroke="#9aa094" stroke-width="0.7"/>
<polygon points="637.9,755.6 450.1,423.7 463.9,418.4 650.7,748.4" fill="#5c6058" stroke="#9aa094" stroke-width="0.7"/>
<polygon points="450.1,423.7 441.6,385.4 456.1,383.2 463.9,418.4" fill="#5c6058" stroke="#9aa094" stroke-width="0.7"/>
<polygon points="441.6,385.4 435.5,300.0 450.1,299.0 456.1,383.2" fill="#5c6058" stroke="#9aa094" stroke-width="0.7"/>
<polygon points="403.8,245.9 518.2,46.8 504.6,41.2 391.1,238.6" fill="#5c6058" stroke="#9aa094" stroke-width="0.7"/>
<polygon points="518.2,46.8 540.6,-36.3 526.1,-38.7 504.6,41.2" fill="#5c6058" stroke="#9aa094" stroke-width="0.7"/>
<polygon points="540.6,-36.3 543.8,-95.7 529.1,-94.7 526.1,-38.7" fill="#5c6058" stroke="#9aa094" stroke-width="0.7"/>
<polygon points="543.8,-95.7 507.2,-283.7 492.9,-280.3 529.1,-94.7" fill="#5c6058" stroke="#9aa094" stroke-width="0.7"/>
<polygon points="244.2,275.6 1.2,-133.3 -7.5,-128.1 235.5,280.8" fill="#5c6058" stroke="#9aa094" stroke-width="0.7"/>
<polygon points="268.3,261.2 25.4,-147.7 34.1,-152.8 277.0,256.1" fill="#5c6058" stroke="#9aa094" stroke-width="0.7"/>
<polygon points="519.1,760.7 311.3,405.0 298.6,412.4 506.5,768.1" fill="#5c6058" stroke="#9aa094" stroke-width="0.7"/>
<polygon points="657.7,773.4 697.8,782.1 700.5,770.0 660.3,761.3" fill="#5c6058" stroke="#9aa094" stroke-width="0.7"/>
<polygon points="697.8,782.1 778.9,801.4 783.0,789.6 700.5,770.0" fill="#5c6058" stroke="#9aa094" stroke-width="0.7"/>
<polygon points="778.9,801.4 1040.7,921.1 1045.8,909.8 783.0,789.6" fill="#5c6058" stroke="#9aa094" stroke-width="0.7"/>
<polygon points="688.9,820.4 766.1,838.8 762.6,848.7 686.0,832.5" fill="#5c6058" stroke="#9aa094" stroke-width="0.7"/>
<polygon points="766.1,838.8 1024.5,957.0 1020.2,966.5 762.6,848.7" fill="#5c6058" stroke="#9aa094" stroke-width="0.7"/>
<polygon points="-77.8,851.9 -55.0,848.2 -56.2,840.9 -79.1,844.0" fill="#5c6058" stroke="#9aa094" stroke-width="0.7"/>
<polygon points="-55.0,848.2 36.0,831.9 34.8,824.6 -56.2,840.9" fill="#5c6058" stroke="#9aa094" stroke-width="0.7"/>
<polygon points="36.0,831.9 406.9,773.0 405.3,763.0 34.8,824.6" fill="#5c6058" stroke="#9aa094" stroke-width="0.7"/>
<polygon points="406.9,773.0 425.9,769.9 424.2,759.9 405.3,763.0" fill="#5c6058" stroke="#9aa094" stroke-width="0.7"/>
<polygon points="-73.3,879.7 -50.2,875.9 -49.0,883.0 -72.2,886.2" fill="#5c6058" stroke="#9aa094" stroke-width="0.7"/>
<polygon points="-50.2,875.9 40.7,859.6 41.9,866.7 -49.0,883.0" fill="#5c6058" stroke="#9aa094" stroke-width="0.7"/>
<polygon points="40.7,859.6 411.4,800.8 413.0,810.8 41.9,866.7" fill="#5c6058" stroke="#9aa094" stroke-width="0.7"/>
<polygon points="411.4,800.8 430.4,797.6 432.1,807.6 413.0,810.8" fill="#5c6058" stroke="#9aa094" stroke-width="0.7"/>
<polygon points="696.7,892.4 659.9,801.3 673.5,795.8 710.3,887.0" fill="#5c6058" stroke="#9aa094" stroke-width="0.7"/>
<polygon points="995.8,-77.7 1137.5,34.7 1143.5,26.5 1002.6,-85.3" fill="#5c6058" stroke="#9aa094" stroke-width="0.7"/>
<polygon points="977.1,-56.7 1121.0,57.5 1115.0,65.7 970.3,-49.1" fill="#5c6058" stroke="#9aa094" stroke-width="0.7"/>
<polygon points="662.6,1006.8 620.8,935.3 608.2,942.7 649.9,1014.1" fill="#5c6058" stroke="#9aa094" stroke-width="0.7"/>
<polygon points="620.8,935.3 543.2,802.0 530.5,809.3 608.2,942.7" fill="#5c6058" stroke="#9aa094" stroke-width="0.7"/>
<polygon points="291.7,379.5 288.8,389.2 293.2,395.6 303.3,396.1" fill="#6d6250" stroke="#c2a978" stroke-width="0.7"/>
<polygon points="303.3,396.1 293.2,395.6 298.6,412.4 311.3,405.0" fill="#6d6250" stroke="#c2a978" stroke-width="0.7"/>
<polygon points="331.4,397.6 341.5,398.1 362.0,381.2 351.4,371.1" fill="#6d6250" stroke="#c2a978" stroke-width="0.7"/>
<polygon points="318.5,345.2 327.2,340.1 308.2,330.1 318.8,340.2" fill="#6d6250" stroke="#c2a978" stroke-width="0.7"/>
<polygon points="318.8,340.2 308.2,330.1 302.7,342.9 299.8,352.6" fill="#6d6250" stroke="#c2a978" stroke-width="0.7"/>
<polygon points="449.1,761.1 458.2,756.6 454.7,754.8 456.3,764.8" fill="#6d6250" stroke="#c2a978" stroke-width="0.7"/>
<polygon points="-98.3,887.8 -103.0,889.6 -102.8,890.8 -103.8,884.7" fill="#6d6250" stroke="#c2a978" stroke-width="0.7"/>
<polygon points="-73.3,879.7 -72.2,886.2 -64.0,874.4 -72.1,877.6" fill="#6d6250" stroke="#c2a978" stroke-width="0.7"/>
<polygon points="-83.5,848.7 -75.5,845.5 -79.1,844.0 -77.8,851.9" fill="#6d6250" stroke="#c2a978" stroke-width="0.7"/>
<polygon points="-108.4,856.9 -109.6,849.4 -116.8,862.0 -109.6,859.1" fill="#6d6250" stroke="#c2a978" stroke-width="0.7"/>
<polygon points="688.9,820.4 686.0,832.5 673.5,795.8 659.9,801.3" fill="#6d6250" stroke="#c2a978" stroke-width="0.7"/>
<polygon points="657.7,773.4 660.3,761.3 650.7,748.4 637.9,755.6" fill="#6d6250" stroke="#c2a978" stroke-width="0.7"/>
<circle cx="436.6" cy="385.8" r="6.8" fill="none" stroke="#7a6a3a" stroke-width="1.5"/>
<circle cx="412.4" cy="390.2" r="6.8" fill="none" stroke="#7a6a3a" stroke-width="1.5"/>
<circle cx="772.5" cy="820.1" r="6.8" fill="none" stroke="#e8c46a" stroke-width="1.5"/>
<circle cx="237.8" cy="348.6" r="6.8" fill="none" stroke="#e8c46a" stroke-width="1.5"/>
<circle cx="731.6" cy="862.6" r="6.8" fill="none" stroke="#e8c46a" stroke-width="1.5"/>
<circle cx="45.8" cy="882.7" r="6.8" fill="none" stroke="#e8c46a" stroke-width="1.5"/>
<circle cx="447.8" cy="815.7" r="6.8" fill="none" stroke="#e8c46a" stroke-width="1.5"/>
<circle cx="409.1" cy="786.9" r="6.8" fill="none" stroke="#e8c46a" stroke-width="1.5"/>
<circle cx="419.2" cy="388.6" r="6.8" fill="none" stroke="#e8c46a" stroke-width="1.5"/>
<circle cx="256.2" cy="268.4" r="6.8" fill="none" stroke="#e8c46a" stroke-width="1.5"/>
<circle cx="367.4" cy="321.6" r="6.8" fill="none" stroke="#e8c46a" stroke-width="1.5"/>
<text x="12" y="26" fill="#cfd6e6" font-family="monospace" font-size="15">4.3955, 45.4315 · rayon 80 m · 172 emprises, 71 bandes, 11 passages pietons</text>
<text x="12" y="46" fill="#9aa094" font-family="monospace" font-size="12">gris clair = trottoir · ocre = raccord d'angle · cercle jaune = passage pieton OSM</text>
</svg>