<svg xmlns="http://www.w3.org/2000/svg" width="900" height="900" viewBox="0 0 900 900">
<rect width="100%" height="100%" fill="#0e1526"/>
<polygon points="-276.2,517.0 -334.7,529.5 -387.4,540.8 -397.5,553.9 -329.8,721.8 -255.2,692.3 -239.8,686.1" fill="#1b2233" stroke="#2c3550" stroke-width="1"/>
<polygon points="382.8,-119.2 371.4,-163.0 318.2,-150.5 329.2,-106.7" fill="#1b2233" stroke="#2c3550" stroke-width="1"/>
<polygon points="761.1,918.4 602.5,1013.6 672.8,1134.4 707.5,1108.1 813.8,1038.6 826.1,1030.5 810.7,1004.2" fill="#1b2233" stroke="#2c3550" stroke-width="1"/>
<polygon points="-37.2,1230.8 -39.4,1225.2 -63.2,1234.0 -60.5,1239.6" fill="#1b2233" stroke="#2c3550" stroke-width="1"/>
<polygon points="157.0,716.7 139.8,687.9 122.7,659.1 52.4,703.0 80.1,746.2 58.1,760.0 65.1,771.9" fill="#1b2233" stroke="#2c3550" stroke-width="1"/>
<polygon points="908.7,1215.2 916.6,1210.2 906.0,1188.9 896.8,1195.1" fill="#1b2233" stroke="#2c3550" stroke-width="1"/>
<polygon points="-280.6,-322.7 -258.7,-286.4 -253.0,-289.5 -249.4,-283.9 -230.6,-295.1 -251.6,-337.7 -263.9,-332.1 -263.9,-333.3" fill="#1b2233" stroke="#2c3550" stroke-width="1"/>
<polygon points="-179.2,259.6 -194.1,265.9 -205.1,270.3 -236.3,282.8 -222.6,317.3 -165.1,294.7" fill="#1b2233" stroke="#2c3550" stroke-width="1"/>
<polygon points="110.4,207.7 122.7,232.7 135.4,258.4 154.3,297.2 185.5,277.8 216.7,258.4 188.6,190.1 178.9,167.6 164.0,173.2 171.9,192.0 167.5,193.9 169.7,198.3 163.1,201.4 147.7,168.8 139.8,153.8 118.3,162.6 135.9,197.7" fill="#1b2233" stroke="#2c3550" stroke-width="1"/>
<polygon points="884.1,1052.4 841.0,1079.9 842.3,1083.1 839.7,1084.9 852.0,1104.3 849.4,1106.2 877.9,1150.7 889.8,1170.1 893.7,1167.6 906.0,1188.9 950.9,1160.7 922.7,1116.2 924.1,1115.6 924.9,1110.6 921.0,1104.3 917.9,1099.3 912.6,1098.1 912.2,1098.7" fill="#1b2233" stroke="#2c3550" stroke-width="1"/>
<polygon points="-238.0,226.5 -293.4,248.4 -319.7,259.0 -302.2,302.2 -300.4,308.5 -291.6,304.7 -236.3,282.8 -205.1,270.3 -207.7,264.0 -217.4,267.2 -220.9,259.0 -242.0,267.2 -248.6,248.4 -232.8,242.1" fill="#1b2233" stroke="#2c3550" stroke-width="1"/>
<polygon points="185.1,373.0 172.8,352.9 155.6,363.6 168.4,383.6" fill="#1b2233" stroke="#2c3550" stroke-width="1"/>
<polygon points="-243.7,-203.7 -237.6,-193.7 -222.6,-201.2 -228.4,-211.2" fill="#1b2233" stroke="#2c3550" stroke-width="1"/>
<polygon points="-179.2,259.6 -165.1,294.7 -157.6,312.2 -154.1,322.3 -118.5,307.9 -86.4,289.7 -118.5,235.2" fill="#1b2233" stroke="#2c3550" stroke-width="1"/>
<polygon points="222.9,1140.0 228.6,1155.1 247.0,1200.2 225.9,1208.9 225.5,1209.5 230.8,1223.3 254.0,1213.3 308.5,1190.8 332.7,1180.7 314.2,1150.1 291.8,1111.2" fill="#1b2233" stroke="#2c3550" stroke-width="1"/>
<polygon points="457.9,230.2 460.1,229.6 461.4,235.2 474.6,232.7 464.5,196.4 452.2,199.5 453.5,205.8 451.3,206.4" fill="#1b2233" stroke="#2c3550" stroke-width="1"/>
<polygon points="-297.8,464.4 -325.0,398.7 -328.5,389.9 -330.3,384.9 -336.9,388.0 -330.7,409.3 -375.5,418.7 -380.4,406.2 -445.8,433.7 -423.0,490.7 -355.3,476.3" fill="#1b2233" stroke="#2c3550" stroke-width="1"/>
<polygon points="223.3,830.1 150.4,872.0 175.0,913.4 143.8,928.4 147.3,935.9 158.7,945.3 168.4,977.2 280.4,944.0 283.5,931.5 253.6,880.8" fill="#1b2233" stroke="#2c3550" stroke-width="1"/>
<polygon points="156.5,147.6 163.1,162.6 174.5,157.6 168.4,142.5" fill="#1b2233" stroke="#2c3550" stroke-width="1"/>
<polygon points="45.4,1082.4 65.1,1153.8 66.4,1159.5 148.2,1135.7 155.2,1133.8 153.4,1125.6 133.7,1056.8 95.9,1068.0" fill="#1b2233" stroke="#2c3550" stroke-width="1"/>
<polygon points="-76.8,220.2 -18.8,197.7 73.0,161.3 48.4,107.5 -37.7,145.1 -104.0,172.6 -88.2,200.2" fill="#1b2233" stroke="#2c3550" stroke-width="1"/>
<polygon points="1221.5,852.0 1248.7,843.2 1245.7,832.0 1228.1,837.6 1218.0,840.7" fill="#1b2233" stroke="#2c3550" stroke-width="1"/>
<polygon points="-130.4,-124.8 -105.3,-136.1 -90.0,-142.4 -118.5,-193.7 -122.5,-201.2 -142.2,-189.9 -153.7,-210.6 -167.3,-202.5 -175.2,-216.2 -180.0,-213.1" fill="#1b2233" stroke="#2c3550" stroke-width="1"/>
<polygon points="-10.9,1199.5 1.4,1241.5 1.4,1243.4 12.4,1281.6 62.9,1269.7 94.1,1262.8 84.0,1225.2 70.4,1175.7" fill="#1b2233" stroke="#2c3550" stroke-width="1"/>
<polygon points="11.1,15.4 13.3,21.1 45.8,7.3 79.6,-7.1 43.2,1.0" fill="#1b2233" stroke="#2c3550" stroke-width="1"/>
<polygon points="1041.4,1124.4 1002.3,1137.5 1048.0,1274.7 1084.4,1273.4 1077.4,1252.1 1118.7,1238.4 1125.7,1249.6 1127.0,1249.6 1233.8,1178.2 1210.5,1108.7 1198.2,1071.2" fill="#1b2233" stroke="#2c3550" stroke-width="1"/>
<polygon points="-202.9,773.7 -195.0,794.4 -191.5,797.5 -157.2,783.7 -156.3,783.7 -137.4,776.2 -136.1,771.9 -144.9,749.9" fill="#1b2233" stroke="#2c3550" stroke-width="1"/>
<polygon points="898.6,760.0 927.1,845.1 952.2,918.4 976.8,992.3 1004.9,1075.5 1022.9,1069.3 1063.3,1055.5 1046.2,1004.8 1054.5,1002.3 1055.9,1005.4 1120.4,984.8 1097.6,920.3 1033.9,941.5 1034.3,945.3 1027.3,947.8 994.4,848.9 1001.4,846.4 1002.3,848.9 1066.8,827.0 1043.6,758.7 1037.0,760.6 1038.3,765.0 981.2,784.4 981.6,787.5 974.6,790.0 957.9,740.5" fill="#1b2233" stroke="#2c3550" stroke-width="1"/>
<polygon points="-294.7,810.0 -220.4,780.6 -235.8,742.4 -229.7,739.9 -238.9,718.0 -244.2,720.5 -255.2,692.3 -329.8,721.8 -312.3,766.2" fill="#1b2233" stroke="#2c3550" stroke-width="1"/>
<polygon points="1145.5,911.5 1162.6,905.9 1148.6,860.8 1130.1,866.4" fill="#1b2233" stroke="#2c3550" stroke-width="1"/>
<polygon points="-71.5,551.4 -67.1,574.0 -57.9,624.7 -55.3,637.2 -50.0,667.3 -3.4,636.6 -11.3,604.7 -28.0,541.4" fill="#1b2233" stroke="#2c3550" stroke-width="1"/>
<polygon points="1036.1,1106.9 1041.4,1124.4 1198.2,1071.2 1192.5,1053.6 1108.6,1081.8 1105.1,1072.4 1089.3,1077.4 1092.3,1087.4" fill="#1b2233" stroke="#2c3550" stroke-width="1"/>
<polygon points="382.8,-119.2 329.2,-106.7 339.7,-61.0 395.1,-74.7" fill="#1b2233" stroke="#2c3550" stroke-width="1"/>
<polygon points="813.8,1038.6 707.5,1108.1 735.1,1152.6 839.7,1084.9 842.3,1083.1 841.0,1079.9" fill="#1b2233" stroke="#2c3550" stroke-width="1"/>
<polygon points="79.2,585.9 4.9,631.6 -3.4,636.6 -50.0,667.3 -43.0,681.7 14.6,645.4 11.1,639.1 23.0,631.6 55.9,688.6 44.0,695.5 37.9,686.1 -1.7,711.7 8.9,729.9 52.4,703.0 122.7,659.1 100.7,622.8" fill="#1b2233" stroke="#2c3550" stroke-width="1"/>
<polygon points="275.1,106.2 345.4,79.3 345.9,77.4 335.8,46.7 332.3,34.8 280.4,-117.9 276.9,-123.6 271.6,-127.3 269.9,-128.6 265.5,-129.8 260.2,-129.8 195.2,-106.0 196.9,-100.4 214.5,-54.1 217.6,-46.6 225.5,-25.3 236.5,4.2 250.1,39.9 263.7,76.8" fill="#1b2233" stroke="#2c3550" stroke-width="1"/>
<polygon points="-227.5,-129.8 -236.7,-148.0 -249.0,-142.4 -240.7,-124.2" fill="#1b2233" stroke="#2c3550" stroke-width="1"/>
<polygon points="-146.2,188.9 -220.0,218.9 -194.1,265.9 -179.2,259.6 -118.5,235.2 -133.9,209.5" fill="#1b2233" stroke="#2c3550" stroke-width="1"/>
<polygon points="188.6,190.1 216.7,258.4 225.9,252.8 261.1,230.8 262.8,229.6 262.8,227.7 254.5,205.8 240.9,168.2 203.1,185.8 202.2,184.5" fill="#1b2233" stroke="#2c3550" stroke-width="1"/>
<polygon points="885.0,-118.6 833.1,-106.0 859.9,10.4 912.6,-1.5" fill="#1b2233" stroke="#2c3550" stroke-width="1"/>
<polygon points="849.4,642.2 850.2,643.5 867.4,694.8 889.8,763.1 898.6,760.0 957.9,740.5 974.1,736.2 968.4,718.6 968.0,717.4 943.8,724.9 934.2,696.7 937.2,696.1 935.0,691.1 934.2,691.1 928.9,673.5 926.7,674.8 909.6,622.8" fill="#1b2233" stroke="#2c3550" stroke-width="1"/>
<polygon points="-169.9,148.8 -279.3,192.6 -298.2,200.2 -287.2,229.0 -242.9,212.1 -240.7,207.0 -248.6,187.6 -235.4,181.4 -220.0,218.9 -146.2,188.9 -158.9,167.0" fill="#1b2233" stroke="#2c3550" stroke-width="1"/>
<polygon points="54.6,307.2 73.0,347.3 92.4,335.4 111.7,323.5 135.4,308.5 154.3,297.2 135.4,258.4 64.2,286.6 69.1,299.1" fill="#1b2233" stroke="#2c3550" stroke-width="1"/>
<polygon points="-13.5,-290.8 -35.5,-283.2 -39.0,-284.5 -61.0,-275.1 -1.2,-231.3 -12.6,-216.2 17.2,-193.7 18.6,-189.3 39.2,-198.1 43.6,-200.6 59.4,-207.5 90.6,-220.6 91.1,-221.3 91.1,-222.5 90.2,-225.0 63.8,-290.8 54.6,-314.6 11.5,-299.5" fill="#1b2233" stroke="#2c3550" stroke-width="1"/>
<polygon points="-86.9,477.6 -131.3,486.9 -147.5,490.1 -132.6,564.0 -71.5,551.4" fill="#1b2233" stroke="#2c3550" stroke-width="1"/>
<polygon points="137.6,1159.5 152.6,1210.8 175.8,1205.8 164.0,1164.5 158.7,1145.7 151.7,1147.6 142.0,1150.1" fill="#1b2233" stroke="#2c3550" stroke-width="1"/>
<polygon points="51.9,200.2 64.7,225.8 99.4,212.1 75.2,160.7 73.0,161.3 -18.8,197.7 -4.7,222.7" fill="#1b2233" stroke="#2c3550" stroke-width="1"/>
<polygon points="-65.4,676.7 -104.5,701.1 -92.6,729.3 -71.9,780.0 -32.0,754.9" fill="#1b2233" stroke="#2c3550" stroke-width="1"/>
<polygon points="178.9,167.6 174.5,157.6 163.1,162.6 160.9,163.8 164.0,173.2" fill="#1b2233" stroke="#2c3550" stroke-width="1"/>
<polygon points="-201.1,94.3 -230.1,45.5 -295.6,76.2 -288.5,88.1 -282.8,98.1 -245.9,164.5 -251.6,167.0 -251.6,165.7 -274.1,174.5 -271.4,180.1 -282.8,184.5 -279.3,192.6 -169.9,148.8 -193.6,106.9 -197.6,100.6" fill="#1b2233" stroke="#2c3550" stroke-width="1"/>
<polygon points="1220.6,812.6 1228.1,837.6 1245.7,832.0 1255.8,829.5 1319.5,810.7 1321.7,810.0 1308.5,802.5 1296.2,805.7 1293.1,791.9 1264.6,775.0 1271.1,798.2 1224.1,811.9" fill="#1b2233" stroke="#2c3550" stroke-width="1"/>
<polygon points="-49.1,-159.9 -74.1,-214.4 -118.5,-193.7 -90.0,-142.4 -64.5,-153.6" fill="#1b2233" stroke="#2c3550" stroke-width="1"/>
<polygon points="91.5,-49.1 79.6,-7.1 76.6,2.9 98.1,1.0 104.7,-20.9 159.1,-43.4 148.2,-72.9" fill="#1b2233" stroke="#2c3550" stroke-width="1"/>
<polygon points="-180.0,853.3 -114.6,826.3 -112.4,825.7 -114.6,820.7 -111.5,819.4 -115.0,813.2 -117.2,814.4 -125.5,796.9 -179.2,818.2 -175.2,828.8 -187.5,834.5" fill="#1b2233" stroke="#2c3550" stroke-width="1"/>
<polygon points="950.9,1160.7 906.0,1188.9 916.6,1210.2 919.2,1215.2 924.5,1225.8 937.7,1252.8 943.8,1265.9 952.6,1259.6 978.1,1244.0 964.0,1200.8" fill="#1b2233" stroke="#2c3550" stroke-width="1"/>
<polygon points="-294.7,810.0 -278.4,850.8 -263.5,887.7 -190.1,857.6 -202.0,827.6 -196.7,825.7 -199.4,820.1 -203.8,821.9 -220.4,780.6" fill="#1b2233" stroke="#2c3550" stroke-width="1"/>
<polygon points="1164.8,821.9 1175.4,853.3 1218.0,840.7 1228.1,837.6 1220.6,812.6 1224.1,811.9 1221.9,805.7" fill="#1b2233" stroke="#2c3550" stroke-width="1"/>
<polygon points="1077.0,705.5 1079.6,713.6 1099.8,708.0 1098.0,699.2" fill="#1b2233" stroke="#2c3550" stroke-width="1"/>
<polygon points="761.1,918.4 810.7,1004.2 883.6,957.8 823.9,778.7 773.4,795.0 780.0,816.3 722.4,852.0 724.6,855.8" fill="#1b2233" stroke="#2c3550" stroke-width="1"/>
<polygon points="-267.0,-18.4 -324.6,6.7 -379.5,30.5 -352.7,84.3 -325.5,73.0 -333.8,54.9 -309.2,44.9 -295.6,76.2 -230.1,45.5 -249.4,11.7" fill="#1b2233" stroke="#2c3550" stroke-width="1"/>
<polygon points="62.9,558.3 -11.3,604.7 4.9,631.6 79.2,585.9" fill="#1b2233" stroke="#2c3550" stroke-width="1"/>
<polygon points="304.6,182.0 305.5,183.3 307.7,185.8 312.9,188.9 317.8,190.1 323.9,190.1 327.4,189.5 376.6,159.5 396.0,147.6 379.7,94.3 363.9,99.3 362.1,96.8 359.5,95.6 282.6,126.3" fill="#1b2233" stroke="#2c3550" stroke-width="1"/>
<polygon points="-215.6,334.8 -205.1,359.8 -195.8,356.1 -201.1,339.8 -205.5,338.5 -208.1,332.3" fill="#1b2233" stroke="#2c3550" stroke-width="1"/>
<polygon points="117.9,885.8 63.4,908.4 85.8,959.7 147.3,935.9 143.8,928.4 137.2,928.4 119.2,890.8 120.0,890.2" fill="#1b2233" stroke="#2c3550" stroke-width="1"/>
<polygon points="893.3,987.3 853.8,1013.6 867.8,1036.1 894.2,1019.2 894.6,1021.7 899.0,1018.6 898.6,1016.7 902.1,1014.2" fill="#1b2233" stroke="#2c3550" stroke-width="1"/>
<polygon points="-323.3,-198.7 -313.2,-181.8 -302.2,-164.3 -255.6,-185.6 -237.6,-193.7 -243.7,-203.7 -258.2,-228.8" fill="#1b2233" stroke="#2c3550" stroke-width="1"/>
<polygon points="-235.8,451.3 -186.6,440.6 -174.3,438.1 -202.4,367.3 -205.1,359.8 -215.6,334.8 -222.6,317.3 -236.3,282.8 -291.6,304.7 -263.9,376.1" fill="#1b2233" stroke="#2c3550" stroke-width="1"/>
<polygon points="-19.2,317.9 15.0,304.1 2.7,285.3 -13.1,257.1 -46.5,270.3 -29.8,299.1" fill="#1b2233" stroke="#2c3550" stroke-width="1"/>
<polygon points="-203.3,-254.4 -186.2,-225.0 -146.2,-243.8 -163.3,-273.9" fill="#1b2233" stroke="#2c3550" stroke-width="1"/>
<polygon points="-67.6,322.3 -83.8,331.7 -78.1,339.8 -124.2,351.7 -125.5,345.4 -135.2,347.3 -133.0,354.2 -140.5,355.4 -112.8,425.0 -96.6,421.8 -30.2,408.0 -24.9,394.3" fill="#1b2233" stroke="#2c3550" stroke-width="1"/>
<polygon points="642.9,1151.9 611.2,1170.1 639.8,1217.7 670.6,1197.6" fill="#1b2233" stroke="#2c3550" stroke-width="1"/>
<polygon points="-147.5,490.1 -201.1,501.3 -211.2,503.9 -195.4,584.0 -188.8,582.1 -189.7,576.5 -132.6,564.0" fill="#1b2233" stroke="#2c3550" stroke-width="1"/>
<polygon points="-59.6,803.8 -95.2,818.2 -49.1,910.2 -11.3,894.6 -42.1,836.3" fill="#1b2233" stroke="#2c3550" stroke-width="1"/>
<polygon points="168.4,142.5 174.5,157.6 189.0,152.6 202.2,184.5 203.1,185.8 240.9,168.2 229.4,139.4 222.0,121.3 206.2,127.5" fill="#1b2233" stroke="#2c3550" stroke-width="1"/>
<polygon points="133.7,1056.8 153.4,1125.6 167.1,1121.3 157.0,1093.1 188.6,1079.9 215.4,1125.0 199.1,1134.4 204.8,1147.6 222.9,1140.0 291.8,1111.2 269.4,1073.0 241.7,1025.5 142.9,1054.3" fill="#1b2233" stroke="#2c3550" stroke-width="1"/>
<polygon points="-80.3,61.1 -62.7,53.6 -63.6,52.4 12.0,19.8 12.4,21.1 13.3,21.1 11.1,15.4 43.2,1.0 32.2,-24.6 -84.3,24.2 -170.4,59.9 -134.3,121.3 -104.0,172.6 -37.7,145.1" fill="#1b2233" stroke="#2c3550" stroke-width="1"/>
<polygon points="-310.5,205.2 -343.9,218.9 -325.9,261.5 -319.7,259.0 -293.4,248.4" fill="#1b2233" stroke="#2c3550" stroke-width="1"/>
<polygon points="32.2,-24.6 43.2,1.0 79.6,-7.1 91.5,-49.1 88.0,-47.8" fill="#1b2233" stroke="#2c3550" stroke-width="1"/>
<polygon points="-129.9,743.7 -95.2,818.2 -59.6,803.8 -71.9,780.0 -92.6,729.3 -119.4,739.9" fill="#1b2233" stroke="#2c3550" stroke-width="1"/>
<polygon points="965.4,679.2 978.1,716.1 989.5,711.7 995.7,730.5 1042.2,716.1 1024.2,661.6" fill="#1b2233" stroke="#2c3550" stroke-width="1"/>
<polygon points="-114.6,826.3 -180.0,853.3 -190.1,857.6 -263.5,887.7 -244.6,934.7 -226.2,981.0 -80.3,922.8 -95.2,883.9 -202.9,927.8 -210.3,909.6 -99.6,864.5" fill="#1b2233" stroke="#2c3550" stroke-width="1"/>
<polygon points="1090.6,746.8 1106.8,797.5 1142.4,786.3 1137.1,770.0 1117.4,776.9 1108.6,751.2 1103.8,742.4" fill="#1b2233" stroke="#2c3550" stroke-width="1"/>
<polygon points="-55.3,637.2 -113.7,652.9 -104.5,701.1 -65.4,676.7 -50.4,667.3" fill="#1b2233" stroke="#2c3550" stroke-width="1"/>
<polygon points="339.7,-61.0 351.1,-16.5 404.7,-29.6 395.1,-74.7" fill="#1b2233" stroke="#2c3550" stroke-width="1"/>
<polygon points="758.9,826.3 777.3,815.7 770.3,796.3 758.0,800.0 752.7,810.7" fill="#1b2233" stroke="#2c3550" stroke-width="1"/>
<polygon points="-86.9,477.6 -71.5,551.4 -28.0,541.4 44.0,525.8 19.0,481.9 4.9,458.1 -55.3,470.7" fill="#1b2233" stroke="#2c3550" stroke-width="1"/>
<polygon points="342.4,-285.8 335.8,-283.2 290.1,-262.0 306.8,-195.0 359.5,-207.5" fill="#1b2233" stroke="#2c3550" stroke-width="1"/>
<polygon points="127.1,886.4 120.0,890.2 119.2,890.8 137.2,928.4 142.5,926.5 143.8,922.8" fill="#1b2233" stroke="#2c3550" stroke-width="1"/>
<polygon points="893.7,1167.6 889.8,1170.1 877.9,1150.7 862.6,1160.7 888.9,1200.8 896.8,1195.1 906.0,1188.9" fill="#1b2233" stroke="#2c3550" stroke-width="1"/>
<polygon points="-211.2,503.9 -241.5,510.1 -276.2,517.0 -239.8,686.1 -231.0,682.3 -185.3,662.3 -180.0,661.0 -187.9,619.1 -227.9,630.3 -232.8,627.2 -243.3,587.8 -212.1,580.9 -205.1,600.9 -203.8,600.3 -197.2,611.6 -190.1,609.7 -192.8,597.2 -195.4,584.0" fill="#1b2233" stroke="#2c3550" stroke-width="1"/>
<polygon points="135.4,258.4 122.7,232.7 17.7,275.3 18.1,275.9 2.7,285.3 15.0,304.1 46.7,291.6 47.6,292.8 54.1,291.0 64.2,286.6" fill="#1b2233" stroke="#2c3550" stroke-width="1"/>
<polygon points="414.9,15.4 410.0,-7.1 404.7,-29.6 351.1,-16.5 362.1,28.0" fill="#1b2233" stroke="#2c3550" stroke-width="1"/>
<polygon points="862.6,1160.7 821.3,1187.6 814.2,1177.0 807.6,1180.7 806.8,1179.5 792.3,1188.9 790.1,1185.8 782.1,1190.8 784.3,1193.9 769.0,1204.5 802.8,1256.5 868.3,1213.3 888.9,1200.8" fill="#1b2233" stroke="#2c3550" stroke-width="1"/>
<polygon points="-36.8,1106.2 -16.2,1178.2 65.1,1153.8 45.4,1082.4 1.9,1095.0" fill="#1b2233" stroke="#2c3550" stroke-width="1"/>
<polygon points="-242.4,-156.8 -202.9,-176.8 -219.1,-202.5 -222.6,-201.2 -237.6,-193.7 -255.6,-185.6" fill="#1b2233" stroke="#2c3550" stroke-width="1"/>
<polygon points="-157.6,312.2 -184.4,322.9 -172.1,354.8 -202.4,367.3 -174.3,438.1 -154.1,433.7 -140.0,430.6 -112.8,425.0 -140.5,355.4 -154.1,322.3" fill="#1b2233" stroke="#2c3550" stroke-width="1"/>
<polygon points="-32.0,754.9 -71.9,780.0 -59.6,803.8 -42.1,836.3 -2.5,812.6" fill="#1b2233" stroke="#2c3550" stroke-width="1"/>
<polygon points="3.2,944.7 -56.6,961.6 -35.5,1036.7 -30.2,1034.8 23.8,1018.6" fill="#1b2233" stroke="#2c3550" stroke-width="1"/>
<polygon points="99.0,36.1 142.9,152.6 156.5,147.6 168.4,142.5 206.2,127.5 181.1,59.9 162.7,10.4" fill="#1b2233" stroke="#2c3550" stroke-width="1"/>
<polygon points="160.9,163.8 163.1,162.6 156.5,147.6 142.9,152.6 139.8,153.8 147.7,168.8" fill="#1b2233" stroke="#2c3550" stroke-width="1"/>
<polygon points="-263.9,376.1 -268.3,377.4 -325.0,398.7 -297.8,464.4 -260.4,456.3 -235.8,451.3" fill="#1b2233" stroke="#2c3550" stroke-width="1"/>
<polygon points="200.4,1149.4 206.2,1163.8 228.6,1155.1 222.9,1140.0 204.8,1147.6" fill="#1b2233" stroke="#2c3550" stroke-width="1"/>
<polygon points="84.0,1225.2 94.1,1262.8 115.7,1258.4 177.2,1244.0 185.1,1242.1 175.8,1205.8 152.6,1210.8" fill="#1b2233" stroke="#2c3550" stroke-width="1"/>
<polygon points="-102.7,-20.3 -93.5,-24.0 -86.0,-20.9 -73.7,-25.9 -70.6,-33.4 -53.9,-40.3 -46.9,-37.2 -34.6,-42.2 -31.5,-49.7 -17.0,-55.3 -10.0,-52.8 1.9,-57.2 4.9,-65.3 22.1,-71.6 29.1,-69.1 41.0,-74.1 44.0,-81.6 69.5,-91.6 88.0,-47.8 91.5,-49.1 148.2,-72.9 146.8,-74.7 120.5,-135.5 122.7,-136.1 113.0,-160.5 93.7,-168.7 88.0,-170.5 -12.2,-128.6 -30.7,-120.4 -83.4,-97.9 -126.9,-79.1 -111.1,-40.9" fill="#1b2233" stroke="#2c3550" stroke-width="1"/>
<polygon points="968.4,718.6 974.1,736.2 995.7,730.5 989.5,711.7 978.1,716.1" fill="#1b2233" stroke="#2c3550" stroke-width="1"/>
<polygon points="-114.6,692.3 -111.1,703.6 -132.6,709.9 -119.4,739.9 -92.6,729.3 -104.5,701.1 -113.7,652.9 -115.9,646.0 -180.0,661.0 -185.3,662.3 -231.0,682.3 -215.2,723.6" fill="#1b2233" stroke="#2c3550" stroke-width="1"/>
<polygon points="1098.0,699.2 1099.8,708.0 1113.0,747.4 1145.5,738.0 1130.6,689.8" fill="#1b2233" stroke="#2c3550" stroke-width="1"/>
<polygon points="-88.6,579.0 -77.2,628.5 -57.9,624.7 -67.1,574.0" fill="#1b2233" stroke="#2c3550" stroke-width="1"/>
<polygon points="306.8,-195.0 318.2,-150.5 371.4,-163.0 364.8,-188.1 359.5,-207.5" fill="#1b2233" stroke="#2c3550" stroke-width="1"/>
<polygon points="189.9,773.1 162.2,725.5 157.0,716.7 65.1,771.9 8.9,805.7 -2.5,812.6 -42.1,836.3 -11.3,894.6" fill="#1b2233" stroke="#2c3550" stroke-width="1"/>
<polygon points="-227.5,-129.8 -240.7,-124.2 -249.0,-142.4 -236.7,-148.0 -242.4,-156.8 -255.6,-185.6 -302.2,-164.3 -272.3,-114.2 -248.1,-73.5 -211.2,-89.8 -183.5,-101.7 -206.0,-138.6" fill="#1b2233" stroke="#2c3550" stroke-width="1"/>
<polygon points="-198.5,-314.6 -173.0,-329.6 -175.6,-338.4 -195.4,-401.0 -196.3,-406.6 -206.8,-406.0 -212.1,-405.4 -225.3,-398.5 -227.9,-403.5 -242.0,-396.6 -243.7,-401.0 -271.4,-387.2 -257.4,-360.3 -231.4,-374.0" fill="#1b2233" stroke="#2c3550" stroke-width="1"/>
<polygon points="416.2,15.4 414.9,15.4 362.1,28.0 379.7,94.3 396.0,147.6 429.4,126.9 439.9,101.2 428.5,58.6" fill="#1b2233" stroke="#2c3550" stroke-width="1"/>
<polygon points="868.3,1213.3 802.8,1256.5 795.3,1260.9 812.9,1288.4 885.8,1240.9" fill="#1b2233" stroke="#2c3550" stroke-width="1"/>
<polygon points="-125.5,575.2 -129.5,575.9 -126.9,587.8 -126.4,594.0 -122.5,614.1 -117.2,637.9 -98.3,633.5 -108.4,584.6 -122.9,587.1" fill="#1b2233" stroke="#2c3550" stroke-width="1"/>
<polygon points="15.0,304.1 -19.2,317.9 -18.3,319.1 2.7,355.4 18.6,381.7 73.0,347.3 54.6,307.2 51.1,300.3 47.6,292.8 46.7,291.6" fill="#1b2233" stroke="#2c3550" stroke-width="1"/>
<polygon points="-74.1,-214.4 -49.1,-159.9 -10.0,-176.8 4.9,-183.7 18.6,-189.3 17.2,-193.7 -12.6,-216.2 -34.2,-232.5" fill="#1b2233" stroke="#2c3550" stroke-width="1"/>
<polygon points="-169.5,580.2 -182.7,584.0 -180.5,594.0 -192.8,597.2 -190.1,609.7 -187.9,619.1 -180.0,661.0 -115.9,646.0 -117.2,637.9 -122.5,614.1 -160.7,622.2" fill="#1b2233" stroke="#2c3550" stroke-width="1"/>
<polygon points="164.0,1164.5 175.8,1205.8 185.1,1242.1 230.8,1223.3 225.5,1209.5 225.9,1208.9 220.7,1195.8 206.6,1200.8 192.5,1152.6" fill="#1b2233" stroke="#2c3550" stroke-width="1"/>
<polygon points="189.9,773.1 -11.3,894.6 -3.0,923.4 1.0,937.2 3.2,944.7 23.8,1018.6 80.9,1002.3 168.4,977.2 158.7,945.3 147.3,935.9 85.8,959.7 50.6,971.6 25.6,888.9 33.5,885.2 35.7,889.6 45.8,882.7 52.4,885.8 116.5,847.0 117.4,840.1 111.7,829.5 120.9,823.2 150.4,872.0 223.3,830.1 196.9,785.6" fill="#1b2233" stroke="#2c3550" stroke-width="1"/>
<polygon points="-224.4,-37.8 -224.4,-37.2 -225.7,-35.9 -225.7,-34.0 -195.4,17.9 -170.4,59.9 -84.3,24.2 -95.7,-3.3 -142.2,16.1 -153.7,-2.7 -147.5,-5.9 -144.0,-20.3 -134.3,-24.6 -127.3,-9.6 -102.7,-20.3 -111.1,-40.9 -126.9,-79.1 -192.3,-51.6" fill="#1b2233" stroke="#2c3550" stroke-width="1"/>
<polygon points="155.6,-200.6 185.5,-134.8 262.4,-169.3 232.5,-235.7 190.3,-216.2" fill="#1b2233" stroke="#2c3550" stroke-width="1"/>
<polygon points="602.5,1013.6 566.9,952.2 505.4,987.9 559.0,1080.6 611.2,1170.1 642.9,1151.9 672.8,1134.4" fill="#1b2233" stroke="#2c3550" stroke-width="1"/>
<polygon points="-321.5,175.7 -328.1,161.3 -358.4,173.2 -362.8,175.1 -343.9,218.9 -310.5,205.2 -309.2,204.5" fill="#1b2233" stroke="#2c3550" stroke-width="1"/>
<polygon points="1210.5,1108.7 1233.8,1178.2 1269.0,1154.4 1282.6,1145.1 1264.1,1091.8" fill="#1b2233" stroke="#2c3550" stroke-width="1"/>
<polygon points="-187.1,-150.5 -206.0,-138.6 -183.5,-101.7 -151.5,-115.4 -130.4,-124.8 -180.0,-213.1 -183.5,-218.8 -219.1,-202.5 -202.9,-176.8" fill="#1b2233" stroke="#2c3550" stroke-width="1"/>
<polygon points="88.0,-47.8 69.5,-91.6 44.0,-81.6 41.0,-74.1 29.1,-69.1 22.1,-71.6 4.9,-65.3 1.9,-57.2 -10.0,-52.8 -17.0,-55.3 -31.5,-49.7 -34.6,-42.2 -46.9,-37.2 -53.9,-40.3 -70.6,-33.4 -73.7,-25.9 -86.0,-20.9 -93.5,-24.0 -102.7,-20.3 -95.7,-3.3 -84.3,24.2 32.2,-24.6" fill="#1b2233" stroke="#2c3550" stroke-width="1"/>
<polygon points="983.8,1082.4 998.7,1128.1 1001.4,1137.5 1041.4,1124.4 1036.1,1106.9 1022.9,1069.3 1004.9,1075.5" fill="#1b2233" stroke="#2c3550" stroke-width="1"/>
<polygon points="-186.2,1079.3 -177.8,1077.4 -116.3,1059.9 -131.7,1009.8 -164.7,1019.2 -170.8,1001.0 -78.1,962.8 -60.5,940.3 -3.0,923.4 -11.3,894.6 -49.1,910.2 -80.3,922.8 -226.2,981.0 -209.5,1022.3" fill="#1b2233" stroke="#2c3550" stroke-width="1"/>
<polygon points="1106.8,797.5 1130.1,866.4 1148.6,860.8 1165.7,855.8 1149.4,806.3 1159.6,803.2 1152.5,782.5 1142.4,786.3" fill="#1b2233" stroke="#2c3550" stroke-width="1"/>
<polygon points="-76.8,220.2 -60.1,247.7 -46.5,270.3 -13.1,257.1 9.3,248.4 15.0,245.9 8.0,233.3 3.2,235.8 -4.7,222.7 -18.8,197.7" fill="#1b2233" stroke="#2c3550" stroke-width="1"/>
<polygon points="-279.3,-274.5 -278.0,-272.0 -344.8,-234.4 -341.3,-228.1 -270.5,-267.6 -270.1,-266.3 -247.3,-278.9 -249.4,-283.9 -253.0,-289.5 -258.7,-286.4" fill="#1b2233" stroke="#2c3550" stroke-width="1"/>
<polygon points="566.9,952.2 602.5,1013.6 761.1,918.4 724.6,855.8" fill="#1b2233" stroke="#2c3550" stroke-width="1"/>
<polygon points="386.3,850.8 403.0,830.1 389.4,818.8 372.7,839.5" fill="#1b2233" stroke="#2c3550" stroke-width="1"/>
<line x1="450.0" y1="-126.7" x2="426.7" y2="-216.9" stroke="#31342e" stroke-width="45.0"/>
<line x1="362.6" y1="999.2" x2="300.2" y2="894.6" stroke="#31342e" stroke-width="28.1"/>
<line x1="1040.9" y1="1339.8" x2="772.0" y2="535.8" stroke="#31342e" stroke-width="28.1"/>
<line x1="772.0" y1="535.8" x2="748.3" y2="466.9" stroke="#31342e" stroke-width="28.1"/>
<line x1="748.3" y1="466.9" x2="699.6" y2="321.0" stroke="#31342e" stroke-width="28.1"/>
<line x1="699.6" y1="321.0" x2="654.3" y2="205.8" stroke="#31342e" stroke-width="28.1"/>
<line x1="654.3" y1="205.8" x2="656.5" y2="172.6" stroke="#31342e" stroke-width="28.1"/>
<line x1="656.5" y1="172.6" x2="668.4" y2="132.5" stroke="#31342e" stroke-width="28.1"/>
<line x1="450.0" y1="-126.7" x2="502.3" y2="-91.6" stroke="#31342e" stroke-width="28.1"/>
<line x1="502.3" y1="-91.6" x2="517.2" y2="-76.0" stroke="#31342e" stroke-width="28.1"/>
<line x1="517.2" y1="-76.0" x2="521.6" y2="-72.2" stroke="#31342e" stroke-width="28.1"/>
<line x1="521.6" y1="-72.2" x2="553.7" y2="-27.8" stroke="#31342e" stroke-width="28.1"/>
<line x1="553.7" y1="-27.8" x2="562.0" y2="-15.9" stroke="#31342e" stroke-width="28.1"/>
<line x1="562.0" y1="-15.9" x2="668.4" y2="132.5" stroke="#31342e" stroke-width="28.1"/>
<line x1="1131.4" y1="560.8" x2="930.7" y2="306.6" stroke="#31342e" stroke-width="28.1"/>
<line x1="362.6" y1="999.2" x2="356.4" y2="1113.7" stroke="#31342e" stroke-width="28.1"/>
<line x1="120.9" y1="-213.1" x2="83.1" y2="-196.8" stroke="#31342e" stroke-width="28.1"/>
<line x1="83.1" y1="-196.8" x2="-254.7" y2="-50.9" stroke="#31342e" stroke-width="28.1"/>
<line x1="510.6" y1="106.9" x2="459.7" y2="141.3" stroke="#31342e" stroke-width="28.1"/>
<line x1="459.7" y1="141.3" x2="298.0" y2="237.1" stroke="#31342e" stroke-width="28.1"/>
<line x1="298.0" y1="237.1" x2="278.2" y2="250.3" stroke="#31342e" stroke-width="28.1"/>
<line x1="278.2" y1="250.3" x2="48.0" y2="398.0" stroke="#31342e" stroke-width="28.1"/>
<line x1="48.0" y1="398.0" x2="17.2" y2="418.1" stroke="#31342e" stroke-width="28.1"/>
<line x1="17.2" y1="418.1" x2="-17.0" y2="432.5" stroke="#31342e" stroke-width="28.1"/>
<line x1="-17.0" y1="432.5" x2="-401.0" y2="513.9" stroke="#31342e" stroke-width="28.1"/>
<line x1="668.4" y1="132.5" x2="718.4" y2="199.5" stroke="#31342e" stroke-width="28.1"/>
<line x1="718.4" y1="199.5" x2="755.8" y2="250.3" stroke="#31342e" stroke-width="28.1"/>
<line x1="455.3" y1="904.0" x2="411.3" y2="947.8" stroke="#31342e" stroke-width="45.0"/>
<line x1="411.3" y1="947.8" x2="362.6" y2="999.2" stroke="#31342e" stroke-width="45.0"/>
<line x1="362.6" y1="999.2" x2="281.7" y2="974.7" stroke="#31342e" stroke-width="28.1"/>
<line x1="281.7" y1="974.7" x2="-195.0" y2="1110.0" stroke="#31342e" stroke-width="28.1"/>
<line x1="-242.0" y1="1123.1" x2="-195.0" y2="1110.0" stroke="#31342e" stroke-width="28.1"/>
<line x1="472.8" y1="1058.0" x2="463.2" y2="1014.8" stroke="#31342e" stroke-width="45.0"/>
<line x1="463.2" y1="1014.8" x2="455.3" y2="904.0" stroke="#31342e" stroke-width="45.0"/>
<line x1="455.3" y1="904.0" x2="583.1" y2="681.7" stroke="#31342e" stroke-width="45.0"/>
<line x1="583.1" y1="681.7" x2="606.8" y2="593.4" stroke="#31342e" stroke-width="45.0"/>
<line x1="606.8" y1="593.4" x2="610.4" y2="528.9" stroke="#31342e" stroke-width="45.0"/>
<line x1="610.4" y1="528.9" x2="573.0" y2="337.3" stroke="#31342e" stroke-width="45.0"/>
<line x1="573.0" y1="337.3" x2="540.9" y2="224.0" stroke="#31342e" stroke-width="45.0"/>
<line x1="540.9" y1="224.0" x2="510.6" y2="106.9" stroke="#31342e" stroke-width="45.0"/>
<line x1="300.2" y1="894.6" x2="57.2" y2="485.7" stroke="#31342e" stroke-width="28.1"/>
<line x1="17.2" y1="418.1" x2="0.5" y2="389.9" stroke="#31342e" stroke-width="28.1"/>
<line x1="0.5" y1="389.9" x2="-254.7" y2="-50.9" stroke="#31342e" stroke-width="28.1"/>
<line x1="120.9" y1="-213.1" x2="143.3" y2="-223.1" stroke="#31342e" stroke-width="28.1"/>
<line x1="120.9" y1="-213.1" x2="162.7" y2="-107.9" stroke="#31342e" stroke-width="28.1"/>
<line x1="162.7" y1="-107.9" x2="254.9" y2="125.6" stroke="#31342e" stroke-width="28.1"/>
<line x1="254.9" y1="125.6" x2="284.4" y2="199.5" stroke="#31342e" stroke-width="28.1"/>
<line x1="284.4" y1="199.5" x2="298.0" y2="237.1" stroke="#31342e" stroke-width="28.1"/>
<line x1="858.6" y1="215.2" x2="784.3" y2="118.8" stroke="#31342e" stroke-width="28.1"/>
<line x1="784.3" y1="118.8" x2="628.4" y2="-82.9" stroke="#31342e" stroke-width="28.1"/>
<line x1="628.4" y1="-82.9" x2="546.2" y2="-291.4" stroke="#31342e" stroke-width="28.1"/>
<line x1="57.2" y1="485.7" x2="17.2" y2="418.1" stroke="#31342e" stroke-width="28.1"/>
<line x1="930.7" y1="306.6" x2="858.6" y2="215.2" stroke="#31342e" stroke-width="28.1"/>
<line x1="802.8" y1="312.9" x2="906.9" y2="435.6" stroke="#31342e" stroke-width="28.1"/>
<line x1="906.9" y1="435.6" x2="1030.4" y2="559.0" stroke="#31342e" stroke-width="28.1"/>
<line x1="1030.4" y1="559.0" x2="1173.2" y2="672.3" stroke="#31342e" stroke-width="28.1"/>
<line x1="755.8" y1="250.3" x2="780.8" y2="282.8" stroke="#31342e" stroke-width="28.1"/>
<line x1="780.8" y1="282.8" x2="802.8" y2="312.9" stroke="#31342e" stroke-width="28.1"/>
<line x1="510.6" y1="106.9" x2="488.2" y2="21.1" stroke="#31342e" stroke-width="45.0"/>
<line x1="488.2" y1="21.1" x2="483.0" y2="1.7" stroke="#31342e" stroke-width="45.0"/>
<line x1="483.0" y1="1.7" x2="450.0" y2="-126.7" stroke="#31342e" stroke-width="45.0"/>
<polygon points="758.7,540.3 735.0,471.4 725.4,474.7 749.1,543.6" fill="#5c6058" stroke="#9aa094" stroke-width="0.7"/>
<polygon points="735.0,471.4 686.3,325.8 676.8,329.3 725.4,474.7" fill="#5c6058" stroke="#9aa094" stroke-width="0.7"/>
<polygon points="686.3,325.8 640.4,208.0 630.4,209.5 676.8,329.3" fill="#5c6058" stroke="#9aa094" stroke-width="0.7"/>
<polygon points="640.4,208.0 642.7,170.1 632.7,168.3 630.4,209.5" fill="#5c6058" stroke="#9aa094" stroke-width="0.7"/>
<polygon points="642.7,170.1 649.3,147.4 639.6,144.5 632.7,168.3" fill="#5c6058" stroke="#9aa094" stroke-width="0.7"/>
<polygon points="785.4,531.3 761.6,462.4 771.2,459.1 794.9,528.0" fill="#5c6058" stroke="#9aa094" stroke-width="0.7"/>
<polygon points="761.6,462.4 712.8,316.2 722.3,312.8 771.2,459.1" fill="#5c6058" stroke="#9aa094" stroke-width="0.7"/>
<polygon points="712.8,316.2 668.2,203.6 678.2,202.1 722.3,312.8" fill="#5c6058" stroke="#9aa094" stroke-width="0.7"/>
<polygon points="668.2,203.6 670.5,173.5 680.6,174.2 678.2,202.1" fill="#5c6058" stroke="#9aa094" stroke-width="0.7"/>
<polygon points="511.3,-102.4 526.9,-86.2 533.9,-93.5 517.9,-110.1" fill="#5c6058" stroke="#9aa094" stroke-width="0.7"/>
<polygon points="526.9,-86.2 532.0,-81.8 539.4,-88.6 533.9,-93.5" fill="#5c6058" stroke="#9aa094" stroke-width="0.7"/>
<polygon points="532.0,-81.8 565.1,-35.9 573.4,-41.8 539.4,-88.6" fill="#5c6058" stroke="#9aa094" stroke-width="0.7"/>
<polygon points="565.1,-35.9 573.5,-24.0 581.8,-29.9 573.4,-41.8" fill="#5c6058" stroke="#9aa094" stroke-width="0.7"/>
<polygon points="573.5,-24.0 668.3,108.4 676.6,102.5 581.8,-29.9" fill="#5c6058" stroke="#9aa094" stroke-width="0.7"/>
<polygon points="507.6,-65.8 511.3,-62.7 503.8,-55.8 500.6,-58.4" fill="#5c6058" stroke="#9aa094" stroke-width="0.7"/>
<polygon points="511.3,-62.7 542.2,-19.6 534.0,-13.7 503.8,-55.8" fill="#5c6058" stroke="#9aa094" stroke-width="0.7"/>
<polygon points="542.2,-19.6 550.6,-7.7 542.3,-1.9 534.0,-13.7" fill="#5c6058" stroke="#9aa094" stroke-width="0.7"/>
<polygon points="550.6,-7.7 645.5,124.7 637.2,130.6 542.3,-1.9" fill="#5c6058" stroke="#9aa094" stroke-width="0.7"/>
<polygon points="467.2,153.2 322.1,239.2 327.2,247.9 472.6,161.7" fill="#5c6058" stroke="#9aa094" stroke-width="0.7"/>
<polygon points="289.4,259.7 285.9,262.0 291.4,270.5 295.0,268.1" fill="#5c6058" stroke="#9aa094" stroke-width="0.7"/>
<polygon points="285.9,262.0 55.6,409.8 61.1,418.3 291.4,270.5" fill="#5c6058" stroke="#9aa094" stroke-width="0.7"/>
<polygon points="55.6,409.8 41.4,419.1 46.9,427.6 61.1,418.3" fill="#5c6058" stroke="#9aa094" stroke-width="0.7"/>
<polygon points="479.5,110.9 452.1,129.4 446.7,120.9 473.8,102.5" fill="#5c6058" stroke="#9aa094" stroke-width="0.7"/>
<polygon points="452.1,129.4 307.7,215.0 302.6,206.3 446.7,120.9" fill="#5c6058" stroke="#9aa094" stroke-width="0.7"/>
<polygon points="273.8,236.3 270.5,238.5 265.0,230.0 268.2,227.8" fill="#5c6058" stroke="#9aa094" stroke-width="0.7"/>
<polygon points="270.5,238.5 40.4,386.2 34.9,377.7 265.0,230.0" fill="#5c6058" stroke="#9aa094" stroke-width="0.7"/>
<polygon points="40.4,386.2 26.0,395.6 20.5,387.1 34.9,377.7" fill="#5c6058" stroke="#9aa094" stroke-width="0.7"/>
<polygon points="4.6,438.6 -12.8,445.9 -9.8,455.6 8.5,448.0" fill="#5c6058" stroke="#9aa094" stroke-width="0.7"/>
<polygon points="-12.8,445.9 -398.0,527.6 -395.8,537.5 -9.8,455.6" fill="#5c6058" stroke="#9aa094" stroke-width="0.7"/>
<polygon points="-6.3,412.7 -21.2,419.0 -24.3,409.4 -10.3,403.4" fill="#5c6058" stroke="#9aa094" stroke-width="0.7"/>
<polygon points="-21.2,419.0 -404.0,500.1 -406.2,490.2 -24.3,409.4" fill="#5c6058" stroke="#9aa094" stroke-width="0.7"/>
<polygon points="691.4,139.9 729.7,191.2 737.9,185.1 699.5,133.8" fill="#5c6058" stroke="#9aa094" stroke-width="0.7"/>
<polygon points="707.1,207.9 744.5,258.6 736.3,264.6 699.0,213.9" fill="#5c6058" stroke="#9aa094" stroke-width="0.7"/>
<polygon points="417.4,910.0 395.2,932.1 384.8,921.9 407.1,899.6" fill="#5c6058" stroke="#9aa094" stroke-width="0.7"/>
<polygon points="395.2,932.1 367.6,961.1 357.0,951.1 384.8,921.9" fill="#5c6058" stroke="#9aa094" stroke-width="0.7"/>
<polygon points="331.6,1004.5 281.6,988.8 281.5,998.9 328.7,1014.2" fill="#5c6058" stroke="#9aa094" stroke-width="0.7"/>
<polygon points="281.6,988.8 -172.2,1118.1 -169.5,1127.9 281.5,998.9" fill="#5c6058" stroke="#9aa094" stroke-width="0.7"/>
<polygon points="281.8,960.7 -179.9,1091.1 -182.7,1081.4 281.9,950.5" fill="#5c6058" stroke="#9aa094" stroke-width="0.7"/>
<polygon points="485.4,1011.5 479.9,933.3 494.5,932.3 499.9,1009.4" fill="#5c6058" stroke="#9aa094" stroke-width="0.7"/>
<polygon points="451.2,865.8 562.3,673.1 548.8,667.5 438.6,858.5" fill="#5c6058" stroke="#9aa094" stroke-width="0.7"/>
<polygon points="562.3,673.1 584.6,589.8 570.2,587.5 548.8,667.5" fill="#5c6058" stroke="#9aa094" stroke-width="0.7"/>
<polygon points="584.6,589.8 587.9,530.4 573.3,531.5 570.2,587.5" fill="#5c6058" stroke="#9aa094" stroke-width="0.7"/>
<polygon points="587.9,530.4 551.1,342.5 536.9,345.9 573.3,531.5" fill="#5c6058" stroke="#9aa094" stroke-width="0.7"/>
<polygon points="551.1,342.5 519.2,229.8 505.1,233.7 536.9,345.9" fill="#5c6058" stroke="#9aa094" stroke-width="0.7"/>
<polygon points="519.2,229.8 496.6,142.6 482.5,146.2 505.1,233.7" fill="#5c6058" stroke="#9aa094" stroke-width="0.7"/>
<polygon points="-4.9,408.3 -11.6,397.0 -19.8,401.8 -13.2,413.3" fill="#5c6058" stroke="#9aa094" stroke-width="0.7"/>
<polygon points="-11.6,397.0 -257.0,-26.9 -265.2,-22.1 -19.8,401.8" fill="#5c6058" stroke="#9aa094" stroke-width="0.7"/>
<polygon points="268.0,120.5 297.5,194.5 307.0,190.9 277.4,116.7" fill="#5c6058" stroke="#9aa094" stroke-width="0.7"/>
<polygon points="297.5,194.5 304.5,213.8 314.0,210.4 307.0,190.9" fill="#5c6058" stroke="#9aa094" stroke-width="0.7"/>
<polygon points="149.6,-102.7 241.9,130.8 232.4,134.6 140.2,-99.0" fill="#5c6058" stroke="#9aa094" stroke-width="0.7"/>
<polygon points="241.9,130.8 271.2,204.5 261.8,208.1 232.4,134.6" fill="#5c6058" stroke="#9aa094" stroke-width="0.7"/>
<polygon points="271.2,204.5 278.1,223.4 268.5,226.9 261.8,208.1" fill="#5c6058" stroke="#9aa094" stroke-width="0.7"/>
<polygon points="847.5,223.8 773.2,127.3 765.2,133.5 839.4,229.9" fill="#5c6058" stroke="#9aa094" stroke-width="0.7"/>
<polygon points="773.2,127.3 616.2,-75.9 607.3,-70.9 765.2,133.5" fill="#5c6058" stroke="#9aa094" stroke-width="0.7"/>
<polygon points="616.2,-75.9 533.1,-286.4 523.6,-282.8 607.3,-70.9" fill="#5c6058" stroke="#9aa094" stroke-width="0.7"/>
<polygon points="795.5,110.2 640.6,-89.8 649.4,-94.8 803.5,104.0" fill="#5c6058" stroke="#9aa094" stroke-width="0.7"/>
<polygon points="640.6,-89.8 559.4,-296.4 568.8,-300.0 649.4,-94.8" fill="#5c6058" stroke="#9aa094" stroke-width="0.7"/>
<polygon points="917.3,426.1 1039.7,548.5 1046.5,540.9 924.7,419.2" fill="#5c6058" stroke="#9aa094" stroke-width="0.7"/>
<polygon points="792.1,322.0 896.6,445.1 889.1,452.0 784.4,328.5" fill="#5c6058" stroke="#9aa094" stroke-width="0.7"/>
<polygon points="896.6,445.1 1021.0,569.5 1014.3,577.0 889.1,452.0" fill="#5c6058" stroke="#9aa094" stroke-width="0.7"/>
<polygon points="481.0,82.5 466.5,26.9 452.3,30.6 466.9,86.2" fill="#5c6058" stroke="#9aa094" stroke-width="0.7"/>
<polygon points="466.5,26.9 461.2,7.4 447.1,11.1 452.3,30.6" fill="#5c6058" stroke="#9aa094" stroke-width="0.7"/>
<polygon points="461.2,7.4 435.9,-91.0 421.8,-87.4 447.1,11.1" fill="#5c6058" stroke="#9aa094" stroke-width="0.7"/>
<circle cx="780.6" cy="282.8" r="6.8" fill="none" stroke="#e8c46a" stroke-width="1.5"/>
<circle cx="645.7" cy="170.4" r="6.8" fill="none" stroke="#e8c46a" stroke-width="1.5"/>
<circle cx="665.3" cy="174.2" r="6.8" fill="none" stroke="#e8c46a" stroke-width="1.5"/>
<circle cx="780.8" cy="282.8" r="6.8" fill="none" stroke="#e8c46a" stroke-width="1.5"/>
<circle cx="300.2" cy="894.6" r="6.8" fill="none" stroke="#e8c46a" stroke-width="1.5"/>
<circle cx="48.0" cy="398.0" r="6.8" fill="none" stroke="#e8c46a" stroke-width="1.5"/>
<circle cx="0.5" cy="389.9" r="6.8" fill="none" stroke="#e8c46a" stroke-width="1.5"/>
<circle cx="284.4" cy="199.5" r="6.8" fill="none" stroke="#e8c46a" stroke-width="1.5"/>
<circle cx="656.5" cy="172.6" r="6.8" fill="none" stroke="#e8c46a" stroke-width="1.5"/>
<circle cx="459.7" cy="141.3" r="6.8" fill="none" stroke="#e8c46a" stroke-width="1.5"/>
<circle cx="483.0" cy="1.7" r="6.8" fill="none" stroke="#e8c46a" stroke-width="1.5"/>
<circle cx="278.2" cy="250.3" r="6.8" fill="none" stroke="#e8c46a" stroke-width="1.5"/>
<text x="12" y="26" fill="#cfd6e6" font-family="monospace" font-size="15">4.3954, 45.4325 · rayon 80 m · 134 emprises, 63 bandes, 12 passages pietons</text>
<text x="12" y="46" fill="#9aa094" font-family="monospace" font-size="12">gris clair = trottoir · cercle jaune = passage pieton OSM</text>
</svg>